<svg width="1086" height="1086" viewBox="0 0 1086 1086" fill="none" xmlns="http://www.w3.org/2000/svg">
<path d="M500.333 1.1335C497.8 1.40016 489.667 2.3335 482.333 3.00016C378.067 13.9335 275.4 58.0668 191.667 128.2C176.2 141 141 176.2 128.2 191.667C58.8667 274.467 18.3334 367.4 3.40002 477.4C0.066691 501.8 0.066691 584.2 3.40002 608.6C18.3334 718.6 58.8667 811.533 128.2 894.333C141 909.8 176.2 945 191.667 957.8C274.467 1027.13 367.4 1067.67 477.4 1082.6C501.8 1085.93 584.2 1085.93 608.6 1082.6C718.6 1067.67 811.533 1027.13 894.333 957.8C909.8 945 945 909.8 957.8 894.333C1027.13 811.533 1067.67 718.6 1082.6 608.6C1085.93 584.2 1085.93 501.8 1082.6 477.4C1067.67 367.4 1027.13 274.467 957.8 191.667C945 176.2 909.8 141 894.333 128.2C811.8 59.1335 717.933 18.0668 609.4 3.5335C597.667 1.9335 580.6 1.26683 549 1.00016C524.867 0.733496 502.867 0.866829 500.333 1.1335ZM507 58.7335C507 74.3335 508.067 108.2 509.533 140.333C510.333 156.067 511.267 178.6 511.667 190.333C513.133 231.933 517.533 341.133 518.2 350.867L518.867 360.6L512.867 359.933C509.533 359.667 506.467 358.867 505.933 358.467C505.533 357.933 504.6 348.733 504.067 337.933C501.667 290.467 493.8 106.333 493 79.4002L492.2 49.8002L495.933 49.2668C497.933 49.0002 501.267 48.6002 503.4 48.4668L507 48.3335V58.7335ZM634.6 55.5335C634.733 55.6668 635.133 95.9335 635.533 145C636.067 194.2 636.733 238.333 637.133 243.133C637.533 248.067 637.4 252.333 636.733 252.6C636.2 253 632.867 253 629.533 252.6L623.4 252.067L622.467 213.267C621.933 191.8 621.267 168.067 621 160.333C619.933 136.733 619 56.6002 619.8 54.6002C620.333 53.1335 621.8 53.0002 627.4 53.9335C631.267 54.7335 634.467 55.4002 634.6 55.5335ZM326.2 100.2C327 101.4 333.267 174.867 341 271C343.533 303.667 346.067 333.533 346.467 337.267C347.133 344.067 347 344.333 342.733 347C340.333 348.467 337.933 349.667 337.4 349.667C337 349.667 336.2 346.2 335.8 341.933C333.933 324.6 326.733 240.867 321.667 180.333C318.733 144.733 316.067 112.867 315.667 109.4C315 103.533 315.133 103 318.6 101.133C322.867 98.8668 325.267 98.4668 326.2 100.2ZM693.267 127C697 128.333 697.4 129 698.2 136.6C699.533 149.933 699.133 213.667 697.667 213.667C693.8 213.667 685.8 209.133 685.133 206.6C684.733 205 684.333 186.067 684.333 164.6C684.333 121.267 683.8 123.8 693.267 127ZM447 133.267C447 136.867 447.933 156.733 449 177.667C450.067 198.6 451.267 225.133 451.8 236.6C452.733 259.8 453 259 444.067 259.533C439.667 259.667 439.667 259.667 439.4 253C439.133 249.267 438.467 237.667 437.667 227C437 216.333 435.4 193.267 434.333 175.667C433.267 158.067 431.933 140.6 431.533 136.867C430.733 130.2 430.867 129.933 434.467 128.6C436.6 127.8 440.333 127.133 442.733 127.133C447 127 447 127 447 133.267ZM816.867 151.533L821.4 153.4L822.333 171.267C822.733 181 823 202.067 822.733 217.933L822.333 247L816.733 244.2L811.133 241.533L810.733 197.267C810.467 172.867 810.6 152.2 810.867 151.267C811.4 149.267 811.4 149.267 816.867 151.533ZM573.4 169C574.2 169.8 576.067 234.467 576.2 267.267L576.333 287L570.067 286.067C566.467 285.667 563.533 285.267 563.4 285.133C563 284.867 559 186.067 559 176.467V166.6L565.8 167.4C569.667 167.933 573 168.6 573.4 169ZM880.467 178.467C882.067 180.333 882.333 209.533 882.733 370.6C883.133 555.533 883.133 560.333 880.733 560.333C879.267 560.333 877.267 559.533 876.067 558.6C874.067 557.133 873.8 541 873.133 383C872.6 287.267 871.933 200.333 871.533 189.8L870.733 170.6L874.6 173.4C876.867 175 879.4 177.267 880.467 178.467ZM760.867 205.8C761.533 206.333 762.2 213.933 762.333 222.6C763 252.067 763.133 432.733 762.467 433.267C762.2 433.533 759.8 432.867 757.133 431.8L752.333 429.8V316.333V203L756.067 203.8C758.067 204.333 760.2 205.133 760.867 205.8ZM392.867 213.267C393.267 216.867 393.933 225 394.333 231.667C394.733 238.2 395.667 253.133 396.467 264.733C398.067 288.2 397.8 289.667 390.2 289.667C386.2 289.667 385.667 289.267 385.133 285.267C383.8 277.4 379.133 211.8 379.8 210.733C380.467 209.8 387.4 207.4 390.6 207.133C391.4 207 392.467 209.8 392.867 213.267ZM172.333 247.267C173.8 261.4 176.733 291 178.867 313C181.133 335 183 353.667 183 354.467C183 356.067 172.733 361.133 171.667 360.067C171 359.4 157.667 241.4 157.667 236.067C157.667 232.867 167.933 219.4 169.267 220.867C169.667 221.133 171 233 172.333 247.267ZM695.133 261.267L699 263.533L699.133 292.333C699.267 308.067 699.533 325.667 699.533 331.4C699.8 343.4 698.333 345.4 691.133 342.867L687 341.4V329.933C687 323.533 686.6 305 686.067 288.6L685.267 259H688.333C689.933 259 693 260.067 695.133 261.267ZM230.867 313C233.267 338.6 237.133 381.8 239.667 409L244.2 458.333L239 463.533L233.933 468.733L233 458.2C232.467 452.333 229.8 425.133 227 397.667C224.2 370.2 220.2 330.333 218.2 309.133L214.467 270.733L219.667 265.933C224.333 261.533 224.867 261.4 225.8 263.8C226.333 265.133 228.6 287.267 230.867 313ZM131 329.133C133.933 355.4 141.667 425.267 148.333 484.333C155 543.4 161.267 600.333 162.467 611C163.533 621.667 165.4 637.8 166.467 647C168.333 662.6 168.333 663.667 166.2 665.267C163 667.667 161.667 667.4 161.667 664.6C161.667 663.4 160.467 653.267 159 642.333C156.6 624.067 152.6 593.133 143.667 523.667C141.8 509.667 138.2 481.8 135.667 461.667C133 441.533 129.133 411.533 127 395C124.867 378.467 121.267 350.2 119 331.933C116.6 313.8 115.133 297.667 115.533 295.933C116.467 292.333 124.333 279.8 125.133 280.6C125.4 281 128.067 302.733 131 329.133ZM90.2 386.6C92.2 402.6 95.9334 431.8 98.4667 451.667C101 471.4 104.2 496.067 105.667 506.333L108.2 525L105.4 527.4C103.8 528.733 102.2 529.267 101.667 528.733C101.133 528.2 100.067 522.867 99.2667 517C98.4667 511.133 93.5334 476.867 88.2 441L78.7334 375.667L81.8 366.6C83.4 361.667 85.1334 357.667 85.5334 357.667C86.0667 357.667 88.0667 370.733 90.2 386.6ZM822.2 369.133C824.067 371 824.333 379.267 824.333 440.467V509.667H820.6C812.467 509.667 812.6 511.667 812.067 435.933L811.667 367H815.933C818.2 367 821.133 367.933 822.2 369.133ZM530.333 393C560.467 397.533 586.733 405.933 612.733 419.267C629.533 427.933 637.533 433.933 656.2 451.8C683.933 478.333 701 501.533 717 534.333C740.333 582.067 749.4 624.333 760.867 737.667C766.067 788.467 772.867 880.6 774.333 918.333C774.733 929.267 775.667 947.267 776.467 958.333C777.933 981.8 779.667 978.6 759 988.6C730.333 1002.47 702.733 1012.07 666.333 1021C621.8 1031.93 593 1035.4 549 1035.53L517 1035.67L517.267 1020.33C517.267 1011.93 518.067 992.333 518.867 977C522.867 902.733 522.067 809 516.867 757C513.933 727.133 508.2 690.867 505 682.867C504.333 681.133 507.4 679.667 520.6 675.133C544.733 666.733 565.667 656.2 568.867 651C574.6 641.133 564.333 627 551.267 627C549 627 542.2 629.4 535.933 632.2C506.067 645.933 446.2 662.067 411.667 665.667C387.8 668.2 350.733 666.733 325 662.067C311 659.533 285.933 650.067 265 639.267C240.867 626.733 226.067 610.067 221.667 590.333C219.267 579.667 219.933 558.333 223 546.333C226.333 533.133 235.667 513.933 244.2 502.733C282.2 452.733 360.6 409.4 441 394.2C466.6 389.4 502.867 388.867 530.333 393ZM941.667 397.133C946.467 399.133 947 399.667 947 404.2C947.267 440.6 946.467 523.8 945.8 527.267C945.667 528.467 938.733 528.6 935.8 527.533C933.933 526.867 933.667 519.667 933.667 460.867C933.667 418.733 934.2 395 935 395C935.667 395 938.733 395.933 941.667 397.133ZM999.933 470.333L1004.73 472.333L1003.8 582.733C1002.73 723.4 1002.6 727.533 997.533 739.667C989.267 759.533 989.667 763.533 990.467 676.333C990.733 632.733 991.4 588.6 991.667 578.333C991.933 568.067 992.2 539.133 992.333 513.933C992.333 483.533 992.733 468.333 993.667 468.333C994.467 468.333 997.267 469.267 999.933 470.333ZM198.067 503.533C198.867 514.333 198.6 515.4 194.733 523.933L190.467 533L188.867 519.667C186.333 498.333 186.333 497.4 191.4 494.2C193.667 492.6 196.067 491.533 196.467 491.8C196.867 492.067 197.667 497.4 198.067 503.533ZM115.667 583.933C116.867 594.867 126.2 667.4 131 703C138.2 758.067 138.733 765.933 135.533 762.6C135.133 762.2 132.067 743.667 128.867 721.4C108.067 577.667 108.2 578.6 109.933 577.533C113.533 575.133 114.733 576.467 115.667 583.933ZM211.667 645C212.467 648.333 216.333 684.467 216.333 688.867C216.333 692.6 211.533 696.067 209.4 693.933C208.733 693.267 207 681.933 205.667 668.867C204.2 655.667 202.733 641.933 202.333 638.333L201.533 631.667L206.2 637C208.867 639.933 211.267 643.533 211.667 645ZM319.267 695.267C320.733 696.6 321.667 701.933 322.867 716.333C324.867 742.333 325.133 740.333 319.667 740.333C314.067 740.333 314.2 740.733 312.333 717.267C310.467 693.4 310.467 693.667 314.067 693.667C315.8 693.667 318.067 694.467 319.267 695.267ZM424.867 697.267C425.133 698.6 425.8 706.6 426.333 715C426.733 723.4 427.933 742.333 429 757C432.733 810.867 432.867 817.667 430.6 817.667C428.067 817.667 427.8 815.667 424.867 777.667C423.8 761.933 421.8 737.133 420.467 722.6C419.267 708.067 418.467 695.933 418.867 695.667C420.333 694.067 424.2 695.267 424.867 697.267ZM174.2 722.867C175 724.067 180.067 766.733 186.333 825C188.2 842.6 190.067 859.533 190.467 862.733L191.133 868.467L187.8 866.333C185.267 864.6 184.333 862.867 184.333 859.8C184.333 851.4 178.6 796.067 174.2 762.2C171.667 743 169.667 726.067 169.667 724.467C169.667 721.667 172.867 720.6 174.2 722.867ZM943.667 778.6L942.733 834.333L939.4 839.267C931.8 850.467 932.2 852.6 932.6 790.2L932.867 733L937.8 727.933C940.467 725.267 943.133 723 943.667 723C944.067 723 944.067 748.067 943.667 778.6ZM820.333 867C821 944.467 820.867 950.467 818.733 952.867C817.4 954.333 816.2 955.267 815.8 954.867C814.867 953.8 813.533 784.867 814.6 783.933C815.133 783.4 816.467 783.133 817.667 783.267C819.4 783.667 819.8 793.133 820.333 867ZM384.867 813.933C385.8 822.2 389.133 861.8 390.467 880.467C391.267 893 391.267 893.4 388.333 894.333C386.733 894.867 384.867 894.733 384.333 894.067C383.4 893.133 380.467 863.533 376.867 817.933L375.933 807H380.067C383.933 807 384.2 807.267 384.867 813.933ZM280.067 860.6C281 861.533 281.667 864.867 281.667 868.2C281.667 871.667 283.267 889.667 285 908.333C290.067 959.4 290.467 966.333 288.2 965C284.733 963 281.667 959.933 282.333 959.133C282.6 958.6 282.067 951.933 281 944.333C280.067 936.6 278.867 924.067 278.333 916.333C277.8 908.6 276.6 894.467 275.533 885C273 861.667 273.133 859 276.067 859C277.4 859 279.133 859.667 280.067 860.6ZM343.133 950.333C343.533 953.267 344.333 964.2 344.867 974.6C345.8 994.6 345.4 996.067 339.933 991.933C338.333 990.733 337.267 985.667 335.667 970.467C332.867 943 332.733 944.067 337.933 944.6C341.8 945 342.333 945.533 343.133 950.333Z" fill="white"/>
<path d="M295.533 456.867C281.667 462.867 280.6 481.667 293.667 488.333C303.133 493.133 312.733 490.867 317.667 482.6C327 467.4 311.8 449.8 295.533 456.867Z" fill="white"/>
<path d="M385.933 469.667C373.133 477.533 373.133 496.467 385.933 504.333C398.6 511.933 415 501.933 415 486.733C415 472.067 398.2 462.2 385.933 469.667Z" fill="white"/>
</svg>
