<svg id="Layer_1" data-name="Layer 1" xmlns="http://www.w3.org/2000/svg" viewBox="0 0 500 111.58"><g id="original-wordmark"><path id="path4" d="M405.12,555.79V446.4h5.94v17.21a21.67,21.67,0,0,0,1.93-2.43,29.42,29.42,0,0,1,26.83-16.64c13.53-.4,24.52,4.61,31,16.64a53.48,53.48,0,0,1,1.29,49c-6,13.5-20.88,20.2-36.8,17.74a29.78,29.78,0,0,1-23.75-15.68v43.51Zm5.94-70.69c.52,5.33.72,9.13,1.33,12.84,2.34,14.63,11,23.31,24.56,24.89a27.92,27.92,0,0,0,30.66-17.74,47.54,47.54,0,0,0-1.05-39.1,27.34,27.34,0,0,0-28.8-15.91A26.61,26.61,0,0,0,414,469.75,135.23,135.23,0,0,0,411.06,485.1Z" transform="translate(-250 -444.21)"/><path id="path6" d="M598.53,500a32,32,0,0,1-31.27,28.28c-24.88,1.25-36.55-15.27-38.41-34.34a55,55,0,0,1,4.85-30.29,33.81,33.81,0,0,1,35.18-18.87,32.33,32.33,0,0,1,28.68,24.6,167,167,0,0,1,2.79,18.18H535c-1.21,17.29,8.08,31.19,21.25,34.54,16.4,4,30.41-3.07,35.5-18.66C592.83,499.4,594.89,498.83,598.53,500ZM535,482H593.4c-.36-18.42-11.84-31.75-27.39-32C548.4,449.75,535.72,462.6,535,482Z" transform="translate(-250 -444.21)"/><path id="path8" d="M610.57,500.37h5.73a23,23,0,0,0,13.5,19.79,35.26,35.26,0,0,0,30.62-.81,13.76,13.76,0,0,0,8.07-13.53,12.46,12.46,0,0,0-8.4-12.48c-6.3-2.34-13-3.64-19.43-5.7a141.55,141.55,0,0,1-19.55-7.15c-10.34-5.05-11-24.72.73-30.94a41.23,41.23,0,0,1,39.42-.61,20.79,20.79,0,0,1,10.51,21.17h-4.93c0-.24-.45-.44-.45-.69-.6-15.71-13.77-20.56-27.91-19.18a37.08,37.08,0,0,0-12.12,3.67,12.93,12.93,0,0,0,1,23.51c6.22,2.27,12.73,3.72,19.11,5.5,5.13,1.41,10.46,2.34,15.43,4a18.21,18.21,0,0,1,12.52,16.44A19.41,19.41,0,0,1,664,523.59c-13.49,7.64-35.71,5.62-45.61-4A27,27,0,0,1,610.57,500.37Z" transform="translate(-250 -444.21)"/><path id="path10" d="M747.18,470.11h-5.37a13.47,13.47,0,0,0-.36-2,17.56,17.56,0,0,0-14.3-16.88,35.21,35.21,0,0,0-22.66,1.09,13.77,13.77,0,0,0-10,13.13,12.67,12.67,0,0,0,9.69,12.76c8.08,2.51,16.36,4,24.56,6.3a68.82,68.82,0,0,1,7.84,2.39,20.19,20.19,0,0,1,1.09,37.6,44.93,44.93,0,0,1-36.35.37,25.21,25.21,0,0,1-15.19-24.48h5.25a29.44,29.44,0,0,0,44.84,18.74A14.41,14.41,0,0,0,744,505.66a12.47,12.47,0,0,0-8.52-12.4c-6.3-2.35-13-3.6-19.43-5.66a141.42,141.42,0,0,1-19.67-7.07c-10.1-5-10.91-24.48.6-30.7a40.7,40.7,0,0,1,40.08-.44A21.12,21.12,0,0,1,747.18,470.11Z" transform="translate(-250 -444.21)"/><path id="path12" d="M395.3,526.26a9.24,9.24,0,0,1-11.47-4.36C377.24,512,370,502.63,363,493l-3-4c-8.33,11.14-16.65,21.85-24.24,33a8.89,8.89,0,0,1-10.91,4.28L356,484.33,327,446.48a9.66,9.66,0,0,1,11.52,4c6.74,9.86,14.22,19.27,21.65,29.25,7.47-9.9,14.86-19.35,21.77-29.13a8.69,8.69,0,0,1,10.83-4l-11.27,14.95c-5.05,6.66-10,13.37-15.27,19.87a4,4,0,0,0-.32,5.71c.1.11.21.21.32.31C375.87,500.25,385.45,513.09,395.3,526.26Z" transform="translate(-250 -444.21)"/><path id="path14" d="M527.88,446.08v5.65A29.29,29.29,0,0,0,496.74,479a29,29,0,0,0-.05,2.95v44.43h-5.77v-80h5.65v16.4C503.56,450.84,514.35,446.4,527.88,446.08Z" transform="translate(-250 -444.21)"/><path id="path16" d="M250,483.81c.85-4,1.37-8.45,2.54-12.57,7-24.84,35.47-35.18,55.06-19.79,11.48,9,14.34,21.77,13.78,36.15H256.75c-1.05,25.69,17.49,41.21,41.2,33.29a24.61,24.61,0,0,0,15.63-17.41c1.25-4,3.27-4.73,7.11-3.56a32.8,32.8,0,0,1-15.67,24,38,38,0,0,1-44.23-5.66,39.71,39.71,0,0,1-9.94-23.35,19.68,19.68,0,0,0-.81-4C250,488.44,250,486.09,250,483.81Zm6.83-1.74h58.45c-.36-18.62-12.12-31.83-27.79-31.95-17.45-.25-29.94,12.68-30.7,31.87Z" transform="translate(-250 -444.21)"/></g></svg>