<?xml version="1.0" standalone="no"?>
<!DOCTYPE svg PUBLIC "-//W3C//DTD SVG 20010904//EN"
 "http://www.w3.org/TR/2001/REC-SVG-20010904/DTD/svg10.dtd">
 <svg version="1.0" xmlns="http://www.w3.org/2000/svg" width="256.000000pt" height="256.000000pt" viewBox="0 0 256.000000 256.000000"
        preserveAspectRatio="xMidYMid meet">
        <g transform="translate(0.000000,256.000000) scale(0.100000,-0.100000)" fill="#10287B" stroke="none">
          <path d="M1582 2372 l-112 -15 -30 -101 c-46 -153 -52 -163 -113 -191 -67 -32
      -80 -31 -94 5 -9 25 -17 30 -45 30 -29 0 -39 7 -66 45 -17 25 -36 45 -42 45
      -5 0 -13 -19 -16 -41 l-7 -41 -53 5 c-58 6 -67 0 -99 -62 l-17 -33 -54 78
      c-30 44 -59 81 -65 82 -20 7 -36 -20 -42 -70 -7 -58 5 -83 85 -180 22 -26 37
      -52 34 -57 -12 -18 -60 8 -145 79 -47 39 -91 70 -99 70 -15 0 -14 -6 23 -107
      12 -35 21 -63 18 -63 -2 0 -14 7 -27 15 -13 9 -39 20 -57 26 -50 14 -367 79
      -387 79 -9 0 10 -15 44 -33 33 -18 129 -80 212 -138 149 -102 152 -105 145
      -134 -7 -28 -7 -57 -1 -114 3 -22 -5 -27 -72 -51 -134 -49 -134 -49 -176 10
      -24 34 -42 49 -53 46 -9 -2 -34 -7 -56 -11 -37 -5 -44 -2 -90 38 -40 36 -55
      58 -74 111 -13 37 -25 65 -27 63 -8 -8 30 -125 48 -144 21 -22 17 -43 -7 -43
      -8 0 -19 -9 -25 -20 -11 -20 -10 -20 30 -4 40 16 42 16 64 -5 17 -16 35 -21
      77 -21 50 0 58 -3 92 -38 22 -22 35 -45 32 -53 -3 -8 4 -45 14 -84 11 -38 19
      -71 18 -72 -2 -1 -22 2 -45 8 -34 7 -47 6 -68 -8 -25 -16 -26 -20 -20 -74 7
      -57 7 -57 -39 -109 -25 -28 -45 -57 -45 -65 0 -27 72 -95 154 -145 63 -39 89
      -50 122 -50 37 0 42 -2 37 -20 -7 -25 19 -66 47 -75 23 -7 26 -42 9 -112 -11
      -43 -13 -45 -43 -39 -41 9 -44 13 -57 81 -6 33 -15 66 -21 73 -15 18 -31 15
      -23 -5 4 -10 13 -40 21 -67 15 -57 59 -108 89 -104 14 2 34 -12 58 -39 43 -47
      97 -69 193 -79 42 -5 68 -3 78 5 11 9 15 3 20 -37 3 -26 13 -58 22 -71 16 -22
      21 -23 94 -17 l77 7 18 -61 c16 -52 24 -64 59 -85 49 -29 58 -24 24 13 -26 27
      -50 70 -62 108 -6 20 -5 20 98 -7 58 -15 110 -30 116 -34 6 -4 21 0 34 9 22
      14 30 13 112 -20 81 -32 92 -34 129 -24 22 7 54 25 71 41 l31 30 33 -50 c29
      -42 39 -50 75 -54 23 -4 55 -2 71 3 27 8 25 8 -17 9 -44 1 -49 4 -87 53 -23
      29 -38 56 -34 59 4 4 31 14 60 24 37 12 52 22 52 34 0 10 2 40 5 67 l6 49 -26
      -60 c-32 -72 -39 -78 -109 -95 -47 -11 -59 -19 -86 -56 -17 -24 -34 -44 -38
      -44 -4 0 -52 19 -107 42 l-101 42 3 60 c2 34 8 119 13 190 6 71 10 247 10 392
      l0 264 -85 0 -85 0 0 110 0 110 84 0 83 0 6 128 c6 153 27 220 89 281 52 52
      139 81 245 81 68 0 74 2 68 18 -50 124 -56 176 -22 218 30 39 32 160 3 193
      -22 24 -29 24 -184 3z" />
          <path d="M1970 2273 c-17 -77 -33 -123 -56 -159 l-33 -51 25 -41 25 -42 -31
      -46 c-37 -55 -30 -73 10 -26 l27 33 7 -32 c3 -17 6 -65 6 -105 l0 -74 -96 0
      c-162 0 -186 -22 -192 -177 l-4 -103 142 0 143 0 -6 -67 c-4 -38 -7 -87 -7
      -110 l0 -43 -135 0 -135 0 0 -331 0 -330 95 -44 c109 -51 154 -62 185 -45 27
      14 90 145 121 253 22 75 24 78 49 72 70 -19 308 -65 330 -65 20 0 12 7 -35 33
      -33 18 -76 44 -96 57 l-37 24 24 31 c48 64 124 274 124 345 0 45 -11 54 -81
      64 -46 7 -47 8 -59 54 -6 25 -26 79 -45 119 l-34 73 117 93 c64 52 143 111
      175 132 31 21 56 40 54 41 -2 2 -68 -14 -148 -36 l-144 -39 -53 54 c-52 54
      -53 55 -46 102 5 41 3 51 -15 68 -20 17 -27 18 -74 8 -29 -6 -59 -14 -68 -18
      -13 -5 -20 9 -37 76 l-21 83 21 40 c15 28 24 71 29 136 4 52 6 96 5 98 -2 1
      -13 -46 -26 -105z" />
        </g>
      </svg>