<svg viewBox="0 0 294.93 301.14" xmlns="http://www.w3.org/2000/svg"><path d="m264 3.55.93.94a3 3 0 0 0 -1.73 1.75l-.94-.94-.9-.9-2.29-2.29a1.23 1.23 0 0 1 1.78-1.74l2.29 2.29z" fill="#96b945" transform="translate(0 -.01)"/><path d="m272.89 14.14a1.23 1.23 0 0 1 -1.74 0l-2.3-2.29-.85-.85-1-1a3 3 0 0 0 1.74-1.74l1.83 1.83 2.3 2.29a1.21 1.21 0 0 1 .02 1.76z" fill="#96b945" transform="translate(0 -.01)"/><path d="m272.14 131.39-3.35 3.35a1.23 1.23 0 0 1 -1.74-1.74l1.53-1.53.9-.89.93-.93a3.1 3.1 0 0 0 1.73 1.74z" fill="#f16251" transform="translate(0 -.01)"/><path d="m279.49 124-3.36 3.36a3.1 3.1 0 0 0 -1.73-1.75l.92-.92.89-.9 1.53-1.53a1.23 1.23 0 0 1 1.74 1.74z" fill="#f16251" transform="translate(0 -.01)"/><path d="m277.06 126.47a4.32 4.32 0 0 0 -1.73-1.74 4.31 4.31 0 0 0 -5.84 5.84 4.31 4.31 0 0 0 7.58-4.11zm-3.79 5.13a3 3 0 0 1 -1.13-.21 3.1 3.1 0 0 1 -1.73-1.75 3 3 0 0 1 -.21-1.12 3.07 3.07 0 0 1 3.07-3.08 3 3 0 0 1 1.13.21 3.1 3.1 0 0 1 1.73 1.75 3 3 0 0 1 .21 1.12 3.07 3.07 0 0 1 -3.07 3.08z" fill="#fff" transform="translate(0 -.01)"/><path d="m278 125.57a5.54 5.54 0 0 0 -4.69-2.59 5.55 5.55 0 0 0 -5.55 5.54 5.4 5.4 0 0 0 .86 2.95 5.54 5.54 0 0 0 4.69 2.59 5.55 5.55 0 0 0 5.55-5.54 5.4 5.4 0 0 0 -.86-2.95zm-4.69 6a3 3 0 0 1 -1.13-.21 3.1 3.1 0 0 1 -1.73-1.75 3 3 0 0 1 -.21-1.12 3.07 3.07 0 0 1 3.07-3.08 3 3 0 0 1 1.13.21 3.1 3.1 0 0 1 1.73 1.75 3 3 0 0 1 .21 1.12 3.07 3.07 0 0 1 -3.11 3.11z" fill="#f16251" transform="translate(0 -.01)"/><path d="m81 228.7.93.93a3.1 3.1 0 0 0 -1.75 1.73l-.92-.92-.9-.9-1.58-1.54a1.23 1.23 0 1 1 1.74-1.74l1.53 1.53.89.9z" fill="#83cbaa" transform="translate(0 -.01)"/><path d="m89.22 238.71a1.21 1.21 0 0 1 -1.74 0l-3.36-3.36a3.1 3.1 0 0 0 1.75-1.73l.92.92.9.89 1.53 1.57a1.21 1.21 0 0 1 0 1.71z" fill="#83cbaa" transform="translate(0 -.01)"/><path d="m83 228.18a4.3 4.3 0 0 0 -2 .52 4.31 4.31 0 1 0 5.85 5.85 4.31 4.31 0 0 0 -3.85-6.37zm1.12 7.17a3 3 0 0 1 -1.12.21 3.07 3.07 0 0 1 -3.08-3.07 3 3 0 0 1 .21-1.13 3.1 3.1 0 0 1 1.75-1.73 3 3 0 0 1 1.12-.21 3.07 3.07 0 0 1 3.08 3.07 3 3 0 0 1 -.21 1.13 3.1 3.1 0 0 1 -1.75 1.73z" fill="#fff" transform="translate(0 -.01)"/><path d="m83 226.94a5.4 5.4 0 0 0 -3 .86 5.54 5.54 0 0 0 -2.59 4.69 5.55 5.55 0 0 0 5.59 5.51 5.4 5.4 0 0 0 3-.86 5.54 5.54 0 0 0 2.59-4.69 5.55 5.55 0 0 0 -5.59-5.51zm1.12 8.41a3 3 0 0 1 -1.12.21 3.07 3.07 0 0 1 -3.08-3.07 3 3 0 0 1 .21-1.13 3.1 3.1 0 0 1 1.75-1.73 3 3 0 0 1 1.12-.21 3.07 3.07 0 0 1 3.08 3.07 3 3 0 0 1 -.21 1.13 3.1 3.1 0 0 1 -1.75 1.73z" fill="#83cbaa" transform="translate(0 -.01)"/><path d="m30.04 84.94-1.22 3.98 1.22 3.98-3.98-1.23-3.97 1.23 1.22-3.98-1.22-3.98 3.97 1.23z" fill="none" stroke="#83cbaa" stroke-linecap="round" stroke-linejoin="round" stroke-width="2.47"/><path d="m225.67 224.79-4 1.23-4-1.23 1.22 4-1.22 4 4-1.23 4 1.23-1.22-4zm-2.4 4.34.53 1.75-1.73-.54a1.29 1.29 0 0 0 -.73 0l-1.76.54.54-1.75a1.26 1.26 0 0 0 0-.72l-.54-1.75 1.76.54a1.29 1.29 0 0 0 .73 0l1.73-.54-.53 1.75a1.26 1.26 0 0 0 0 .72z" fill="#fff" transform="translate(0 -.01)"/><path d="m225.74 228.77 1.11-3.62a1.24 1.24 0 0 0 -1.55-1.54l-3.6 1.12-3.62-1.12a1.2 1.2 0 0 0 -1.23.31 1.22 1.22 0 0 0 -.31 1.23l1.11 3.62-1.11 3.62a1.24 1.24 0 0 0 1.54 1.54l3.62-1.12 3.6 1.12a1.19 1.19 0 0 0 .37.06 1.25 1.25 0 0 0 1.18-1.6zm-6.16 2.11.54-1.75a1.26 1.26 0 0 0 0-.72l-.54-1.75 1.76.54a1.29 1.29 0 0 0 .73 0l1.73-.54-.53 1.75a1.26 1.26 0 0 0 0 .72l.53 1.75-1.73-.54a1.29 1.29 0 0 0 -.73 0z" fill="#fec656" transform="translate(0 -.01)"/><path d="m266 3.07a4.15 4.15 0 0 0 -3.7 2.23 4.26 4.26 0 0 0 -.48 2 4.18 4.18 0 0 0 4.18 4.13 4.16 4.16 0 0 0 3.7-2.22 4.27 4.27 0 0 0 .48-2 4.18 4.18 0 0 0 -4.18-4.14zm1 6.93a2.89 2.89 0 0 1 -1 .19 3 3 0 0 1 -2.94-2.95 2.83 2.83 0 0 1 .18-1 2.94 2.94 0 0 1 5.7 1 2.88 2.88 0 0 1 -.18 1 3 3 0 0 1 -1.76 1.76z" fill="#fff" transform="translate(0 -.01)"/><path d="m266 1.83a5.29 5.29 0 0 0 -2.86.83 5.17 5.17 0 0 0 -1.74 1.74 5.36 5.36 0 0 0 -.82 2.85 5.42 5.42 0 0 0 5.42 5.42 5.31 5.31 0 0 0 2.85-.82 5.17 5.17 0 0 0 1.74-1.74 5.26 5.26 0 0 0 .83-2.85 5.42 5.42 0 0 0 -5.42-5.43zm1 8.17a2.89 2.89 0 0 1 -1 .19 3 3 0 0 1 -2.94-2.95 2.83 2.83 0 0 1 .18-1 2.94 2.94 0 0 1 5.7 1 2.88 2.88 0 0 1 -.18 1 3 3 0 0 1 -1.76 1.76z" fill="#96b945" transform="translate(0 -.01)"/><path d="m8.37 146.23-3.48 3.48a1.23 1.23 0 0 1 -1.74-1.71l1.55-1.55.92-.92 1-1a1.9 1.9 0 0 0 1.75 1.7z" fill="#fec656" transform="translate(0 -.01)"/><path d="m13.92 140.69-1.55 1.55-.93.93-1 1a1.9 1.9 0 0 0 -1.73-1.74l1-1 .93-.92 1.54-1.51a1.23 1.23 0 1 1 1.74 1.74z" fill="#fec656" transform="translate(0 -.01)"/><path d="m11.44 143.17a3.12 3.12 0 0 0 -1.74-1.75 3 3 0 0 0 -1.17-.23 3.15 3.15 0 0 0 -3.14 3.14 3 3 0 0 0 .23 1.17 3.16 3.16 0 0 0 1.74 1.74 3 3 0 0 0 1.17.23 3.15 3.15 0 0 0 3.14-3.14 3 3 0 0 0 -.23-1.16zm-2.91 3.07h-.16a1.9 1.9 0 0 1 -1.74-1.73 1 1 0 0 1 0-.17 1.92 1.92 0 0 1 1.91-1.91h.16a1.9 1.9 0 0 1 1.73 1.74.86.86 0 0 1 0 .16 1.92 1.92 0 0 1 -1.9 1.91z" fill="#fff" transform="translate(0 -.01)"/><path d="m12.37 142.24a4.37 4.37 0 0 0 -8.21 2.09 4.22 4.22 0 0 0 .54 2.09 4.37 4.37 0 0 0 7.67-4.18zm-1.93 2.09a1.92 1.92 0 0 1 -1.91 1.91h-.16a1.9 1.9 0 0 1 -1.74-1.73 1 1 0 0 1 0-.17 1.92 1.92 0 0 1 1.91-1.91h.16a1.9 1.9 0 0 1 1.73 1.74.86.86 0 0 1 .01.16z" fill="#fec656" transform="translate(0 -.01)"/><circle cx="2.79" cy="31.9" fill="#96b945" r="2.79"/><path d="m105.71 15.38v6.12" fill="none" stroke="#58c8e0" stroke-linecap="round" stroke-linejoin="round" stroke-width="2.47"/><path d="m102.65 18.44h6.12" fill="none" stroke="#58c8e0" stroke-linecap="round" stroke-linejoin="round" stroke-width="2.47"/><path d="m33.68 9.67h6.12" fill="none" stroke="#f16251" stroke-linecap="round" stroke-linejoin="round" stroke-width="2.47"/><path d="m36.74 6.61v6.12" fill="none" stroke="#f16251" stroke-linecap="round" stroke-linejoin="round" stroke-width="2.47"/><circle cx="228.43" cy="11.84" fill="none" r="1.78" stroke="#83cbaa" stroke-linecap="round" stroke-linejoin="round" stroke-width="2.47"/><path d="m289.34 57.16h4.35" fill="none" stroke="#58c8e0" stroke-linecap="round" stroke-linejoin="round" stroke-width="2.47"/><path d="m291.51 54.98v4.35" fill="none" stroke="#58c8e0" stroke-linecap="round" stroke-linejoin="round" stroke-width="2.47"/><path d="m87.25 194.26c-33.15-12.74-31.25-36.42-32.52-61.6a113.86 113.86 0 0 1 7-45c-7.78-25.12-3-41.47-.54-47.42a5.6 5.6 0 0 1 4.15-3.24c16-2.85 40.9 13.66 40.9 13.66s10.48-7.66 39.3-7.66 39.31 7.58 39.31 7.58 24.94-16.48 40.9-13.58a5.61 5.61 0 0 1 4.18 3.33c2.46 6 7.24 22.3-.54 47.42a113.86 113.86 0 0 1 7 45c-1.28 25.18.63 48.86-32.52 61.6-31.87 12.13-84.79 12.13-116.62-.09z" fill="#dadbe2" transform="translate(0 -.01)"/><path d="m208.88 102.25c-21.26-16.57-28.11 5-63.34 5s-42.07-21.62-63.34-5-1.57 40-5.29 56.22-4.44 27 19.35 35 40.55 8.29 49.28 8.29 25.5-.36 49.29-8.29 23.06-18.74 19.34-35 15.98-39.64-5.29-56.22z" fill="#5b616c" transform="translate(0 -.01)"/><path d="m82.2 110.15c21.27-16.58 28.11 5 63.34 5s42.08-21.62 63.34-5c6.38 5 9.06 10.56 9.8 16.39.94-8.62-.58-17.1-9.8-24.29-21.26-16.57-28.11 5-63.34 5s-42.07-21.62-63.34-5c-9.22 7.19-10.73 15.67-9.8 24.29.75-5.83 3.42-11.42 9.8-16.39z" fill="#45515d" transform="translate(0 -.01)"/><path d="m145.54 44.58c-28.82 0-39.3 7.59-39.3 7.59a6.14 6.14 0 0 1 -7.07 5h-.1c-12.55-13-31.76-11.38-31.76-11.38-6.43 18.66 1.49 37.34 1.49 37.34-.87 6.31-5.55 6.13-5.55 6.13s-8.25 18.22-7 43.4c.17 3.24.28 6.45.42 9.61 4.13-62.73 55.45-94.46 83.77-85.88 18.15 5.49-7.44 30.06-7.44 30.06 31.93-21.53 80.44-22.16 92.09 19.71 16 57.4-2.5 76.52-2.58 76.8 13.68-13.22 12.85-31.34 13.81-50.3a113.86 113.86 0 0 0 -7-45c-5.08 1.84-7.34-6.09-7.34-6.09 9.35-14.48.93-35.48.93-35.48-13.74-2.47-31.55 10.27-31.55 10.27-7.05 1.85-6.58-4.23-6.58-4.23s-10.42-7.55-39.24-7.55z" fill="#caccd3" transform="translate(0 -.01)"/><path d="m69.21 167.31a69.25 69.25 0 0 0 -8.12-1 70.94 70.94 0 0 0 -8.12-.07 54.41 54.41 0 0 0 -7.93 1 36.47 36.47 0 0 0 -7.33 2.44h-.06a2.48 2.48 0 0 1 -2.07-4.51l.27-.11a40.74 40.74 0 0 1 8.61-1.75 60.85 60.85 0 0 1 8.54 0 75.32 75.32 0 0 1 8.33 1.09 73.42 73.42 0 0 1 8.12 2 .46.46 0 0 1 .3.58.44.44 0 0 1 -.52.32z" fill="#caccd3" transform="translate(0 -.01)"/><path d="m68.88 172.5a68.86 68.86 0 0 0 -8.06 1.37 70.39 70.39 0 0 0 -7.82 2.22 54.69 54.69 0 0 0 -7.32 3.21 36.51 36.51 0 0 0 -6.35 4.4v.05a2.49 2.49 0 0 1 -3.33-3.75 1.08 1.08 0 0 1 .24-.18 40 40 0 0 1 7.76-4.1 57 57 0 0 1 8.18-2.45 75 75 0 0 1 8.3-1.31 72.71 72.71 0 0 1 8.35-.39.48.48 0 0 1 .4.53.47.47 0 0 1 -.4.4z" fill="#caccd3" transform="translate(0 -.01)"/><path d="m221.64 166.41a72.71 72.71 0 0 1 8.11-2 78 78 0 0 1 8.34-1.09 60.71 60.71 0 0 1 8.53 0 40.12 40.12 0 0 1 8.61 1.75 2.48 2.48 0 1 1 -1.31 4.78l-.2-.06-.27-.1h-.07a36.47 36.47 0 0 0 -7.33-2.44 54.41 54.41 0 0 0 -7.93-1 70.94 70.94 0 0 0 -8.12.07 69.41 69.41 0 0 0 -8.13 1 .46.46 0 0 1 -.54-.36.49.49 0 0 1 .31-.55z" fill="#caccd3" transform="translate(0 -.01)"/><path d="m222.23 171.57a72.71 72.71 0 0 1 8.35.39 75 75 0 0 1 8.3 1.31 57 57 0 0 1 8.18 2.45 40 40 0 0 1 7.76 4.11 2.48 2.48 0 1 1 -2.72 4.17h-.07a1.84 1.84 0 0 1 -.22-.17l-.07-.06a36.43 36.43 0 0 0 -6.34-4.4 54.69 54.69 0 0 0 -7.32-3.21 75.52 75.52 0 0 0 -7.81-2.22 68.86 68.86 0 0 0 -8.06-1.37.48.48 0 0 1 -.4-.53.47.47 0 0 1 .4-.4z" fill="#caccd3" transform="translate(0 -.01)"/><path d="m145.54 208.3a208.92 208.92 0 0 1 -26.8-2 1.86 1.86 0 0 0 -2.11 2c1 11.81 6.61 64.34 28.91 64.34s27.94-52.53 28.92-64.34a1.86 1.86 0 0 0 -1.69-2 2 2 0 0 0 -.43 0 208.92 208.92 0 0 1 -26.8 2z" fill="#45515d" transform="translate(0 -.01)"/><path d="m145.54 211.1a228.28 228.28 0 0 1 -30.35-2.33.93.93 0 0 0 -1.06.78.81.81 0 0 0 0 .22c.7 9.28 6.25 71 31.42 71s30.72-61.77 31.45-71.01a.92.92 0 0 0 -.82-1h-.24a227.5 227.5 0 0 1 -30.4 2.34z" fill="#dadbe2" transform="translate(0 -.01)"/><path d="m175.9 208.77a228.56 228.56 0 0 1 -30.36 2.33 228.28 228.28 0 0 1 -30.35-2.33.93.93 0 0 0 -1.06.78.81.81 0 0 0 0 .22c.16 2.12.58 7 1.42 13.26 10.33-6.47 41.55-10.49 49.36 2.95s-24.46 62.94-36.51 42.31c4.34 7.45 9.94 12.53 17.15 12.53 25.17 0 30.73-61.77 31.42-71a.92.92 0 0 0 -.82-1z" fill="#caccd3" transform="translate(0 -.01)"/><ellipse cx="145.54" cy="298.83" fill="#dadbe2" rx="50.09" ry="2.31"/><g fill="#64bcea"><path d="m139.28 165.05h7.04v7.04h-7.04z"/><path d="m146.86 165.05h7.04v7.04h-7.04z"/><path d="m120.35 148.2h7.04v7.04h-7.04z"/><path d="m120.35 140.64h7.04v7.04h-7.04z"/><path d="m91.16 148.2h7.04v7.04h-7.04z"/><path d="m91.16 140.64h7.04v7.04h-7.04z"/><path d="m113.32 133.08h7.04v7.04h-7.04z"/><path d="m105.76 133.08h7.04v7.04h-7.04z"/><path d="m98.2 133.08h7.04v7.04h-7.04z"/><path d="m193.41 148.2h7.04v7.04h-7.04z"/><path d="m193.41 140.64h7.04v7.04h-7.04z"/><path d="m164.22 148.2h7.04v7.04h-7.04z"/><path d="m164.22 140.64h7.04v7.04h-7.04z"/><path d="m186.38 133.08h7.04v7.04h-7.04z"/><path d="m178.82 133.08h7.04v7.04h-7.04z"/><path d="m171.26 133.08h7.04v7.04h-7.04z"/></g></svg>