<?xml version="1.0" standalone="no"?>
<!DOCTYPE svg PUBLIC "-//W3C//DTD SVG 20010904//EN"
 "http://www.w3.org/TR/2001/REC-SVG-20010904/DTD/svg10.dtd">
<svg version="1.0" xmlns="http://www.w3.org/2000/svg"
 width="256.000000pt" height="256.000000pt" viewBox="0 0 256.000000 256.000000"
 preserveAspectRatio="xMidYMid meet">

<g transform="translate(0.000000,256.000000) scale(0.100000,-0.100000)"
fill="#BB0000" stroke="none">
<path d="M1984 2472 c11 -33 -42 -238 -74 -291 -34 -54 -36 -68 -15 -95 21
-27 19 -65 -5 -103 -22 -37 -31 -39 -69 -17 -18 10 -31 30 -38 57 -6 23 -20
70 -29 104 l-18 61 29 43 c25 36 30 52 30 104 0 82 -21 115 -73 115 -36 0
-254 -28 -258 -33 -1 -1 -16 -51 -34 -112 -38 -131 -48 -148 -100 -175 -57
-29 -83 -26 -97 10 -9 25 -17 30 -43 30 -25 0 -41 10 -75 48 l-43 47 -7 -30
c-4 -16 -8 -36 -11 -42 -2 -8 -23 -13 -57 -13 -57 0 -78 -13 -91 -57 -4 -13
-13 -23 -19 -23 -15 0 -97 124 -97 145 0 35 -46 2 -68 -47 -6 -16 -16 -28 -21
-28 -6 0 -6 -12 0 -32 5 -18 6 -41 3 -50 -6 -19 -34 -24 -49 -9 -18 17 -50 16
-67 -1 -14 -14 -16 -22 -7 -42 8 -17 8 -29 0 -45 -10 -18 -19 -21 -61 -17 -39
4 -231 39 -337 62 -34 7 -28 -13 10 -31 62 -31 337 -220 337 -232 0 -7 9 -17
20 -23 19 -10 21 -19 18 -83 -3 -70 -4 -72 -33 -82 -16 -5 -32 -12 -35 -16 -8
-10 -102 -39 -124 -39 -14 0 -32 17 -51 45 l-30 46 -67 -7 c-61 -6 -68 -5 -74
12 -11 37 -21 49 -45 54 -19 5 -31 23 -59 93 -36 91 -56 113 -46 50 14 -96 19
-119 31 -136 11 -16 11 -25 -1 -53 -21 -50 -18 -55 26 -39 51 18 47 18 70 -5
15 -15 33 -20 78 -20 52 0 61 -3 87 -30 24 -25 30 -41 32 -83 1 -29 3 -61 5
-72 3 -17 -4 -21 -42 -25 -36 -4 -47 -10 -57 -31 -18 -36 -22 -72 -11 -86 12
-15 -11 -59 -51 -97 -68 -65 -28 -132 134 -229 64 -39 86 -47 113 -43 30 4 32
3 32 -25 0 -32 30 -69 56 -69 12 0 15 -6 10 -23 -3 -12 -6 -32 -6 -44 0 -14
-6 -23 -15 -23 -8 0 -15 -7 -15 -15 0 -8 -3 -15 -7 -15 -20 1 -31 19 -37 64
-11 71 -23 96 -45 96 -31 0 -34 -16 -14 -90 15 -61 22 -73 55 -95 21 -14 46
-25 56 -25 10 0 36 -17 59 -38 48 -46 129 -72 222 -73 60 -1 61 -2 61 -29 0
-20 6 -29 21 -33 17 -5 20 -11 17 -31 -6 -32 1 -35 90 -28 61 4 72 3 72 -11 0
-13 5 -14 30 -5 23 7 43 7 78 -2 26 -7 81 -14 122 -15 60 -1 93 -9 166 -38 83
-33 95 -35 130 -25 22 6 48 20 60 30 31 27 51 22 80 -22 26 -40 27 -40 88 -39
33 0 70 4 81 8 16 7 14 9 -14 14 -19 4 -44 7 -56 7 -26 0 -75 58 -75 88 0 13
13 22 48 33 l47 15 3 63 3 62 32 -7 c90 -20 116 0 169 129 18 42 36 77 40 77
4 0 8 8 8 18 0 9 5 33 10 53 10 36 10 36 58 32 26 -3 104 -16 175 -29 70 -13
134 -24 142 -24 24 0 17 16 -12 29 -53 23 -143 86 -143 99 0 7 15 43 34 80 18
37 44 97 56 134 13 38 26 68 30 68 13 0 23 116 12 137 -7 12 -31 23 -71 31
-52 11 -61 16 -61 35 0 12 -16 60 -35 107 -34 84 -34 85 -15 99 11 7 20 19 20
26 0 15 210 180 258 203 37 18 43 42 10 42 -13 0 -80 -15 -150 -33 -126 -33
-128 -33 -129 -13 0 13 -3 16 -6 8 -4 -10 -17 -3 -44 23 -36 36 -37 40 -32 86
5 42 2 50 -20 73 -29 29 -58 32 -122 12 l-40 -12 -16 66 c-14 60 -14 68 2 106
23 55 31 294 11 294 -8 0 -11 -7 -8 -18z m-339 -647 c64 -24 149 -107 165
-161 28 -97 38 -364 20 -558 -11 -124 -42 -193 -111 -243 -80 -57 -135 -65
-437 -61 -256 3 -269 4 -319 27 -65 29 -124 91 -149 157 -17 44 -19 78 -19
344 0 289 0 296 24 347 39 88 117 145 221 163 25 5 160 7 300 6 218 -2 262 -5
305 -21z"/>
<path d="M1077 1750 c-111 -14 -165 -60 -186 -161 -14 -66 -14 -463 0 -531 14
-68 50 -115 108 -142 43 -20 62 -21 306 -21 287 0 316 5 373 58 54 52 62 98
62 372 0 267 -8 320 -57 367 -56 54 -89 60 -323 64 -118 1 -245 -1 -283 -6z
m561 -102 c21 -21 15 -75 -10 -92 -30 -21 -54 -20 -78 4 -24 24 -26 63 -4 84
18 19 75 21 92 4z m-233 -75 c100 -34 175 -143 175 -254 0 -105 -87 -221 -187
-250 -160 -46 -307 41 -343 203 -15 66 -4 127 36 195 61 105 194 149 319 106z"/>
<path d="M1234 1480 c-66 -33 -89 -72 -89 -155 0 -57 4 -76 23 -103 64 -89
205 -96 276 -12 121 144 -41 353 -210 270z"/>
</g>
</svg>
