<svg width="17" height="21" viewBox="0 0 17 21" fill="none" xmlns="http://www.w3.org/2000/svg">
<path d="M14.7534 8.55324C14.9227 9.19909 14.2017 9.88782 14.2017 9.88782C14.2017 9.88782 12.8872 10.7259 13.1437 7.13001C13.4001 3.53415 7.51017 0 7.51017 0C7.51017 0 7.54377 0.342789 7.50857 2.71321C7.46427 5.69628 5.68467 4.67358 5.68467 4.67358C3.90327 6.51156 4.06527 10.6622 4.06527 10.6622C1.85997 12.5405 1.78267 8.63507 1.78267 8.63507C1.78267 8.63507 -2.41613 12.7191 2.07417 17.0943C2.07417 17.0943 2.73267 17.7282 1.68027 17.5264C0.929769 17.3827 0.760271 17.0935 0.760271 17.0935C0.760271 17.0935 0.903471 18.9045 6.19827 20.0381C6.30097 20.0582 7.94657 20.3702 9.80527 20.013C13.8841 19.1307 14.5962 17.4913 14.5962 17.4913C14.5962 17.4913 14.5098 17.6392 13.833 17.7053C13.1057 17.7764 13.7301 17.101 13.7301 17.101C18.5223 14.2028 14.5841 7.90739 14.7534 8.55324Z" fill="#FF4C1F"/>
<path d="M13.0093 14.5178C13.964 13.078 13.2333 12.0048 13.2333 12.0048C11.7377 12.7451 11.2907 12.2273 11.1583 11.8077C11.1058 11.6415 11.097 11.4651 11.1274 11.2941C12.098 5.82899 8.34445 2.87481 8.43835 3.60464C8.46685 3.82529 8.42735 4.1149 8.35795 4.41227C8.19385 5.11635 7.88035 5.77944 7.45325 6.3718C6.86485 7.18775 5.80155 8.93796 5.22275 11.571C4.39425 15.3401 2.01165 12.611 2.01165 12.611C2.01165 12.611 0.615654 17.2053 6.30445 20.0571C6.63945 20.1132 7.69965 20.2605 8.97785 20.133C12.7158 18.4394 14.0579 15.1314 14.0579 15.1314C14.0579 15.1314 12.0547 15.9576 13.0093 14.5178Z" fill="#FF9C45"/>
<path d="M11.7051 13.5383L11.706 13.5363L11.7051 13.5383Z" fill="#FFDD56"/>
<path d="M11.7054 13.5383C11.686 13.5861 11.2852 14.5229 9.79826 14.761C8.27236 15.0052 8.94296 9.88467 8.94296 9.88467C5.19096 11.5957 5.88776 15.6167 5.88776 15.6167C5.88776 15.6167 5.28826 16.1736 4.52066 15.6159C4.25996 15.4265 4.83066 18.8468 7.28256 20.1634C7.73766 20.1909 8.30586 20.1965 8.92726 20.1377C10.6153 19.008 11.5144 15.4668 11.5144 15.4668L10.7401 15.927L11.7054 13.5383Z" fill="#FFDD56"/>
<path d="M0.933425 8.13597C0.933425 8.13597 0.714624 6.28233 1.78662 5.46416C1.95412 5.33628 2.06703 5.23257 2.14963 5.0426C2.21703 4.88823 2.32132 4.6429 2.27062 4.45924C2.14392 3.99927 3.69982 6.54397 0.933425 8.13597Z" fill="#FF4C1F"/>
<path d="M8.9391 20.1368C9.6209 19.4472 10.531 16.6909 10.531 16.6909C10.531 16.6909 10.3338 17.2556 9.5983 17.1808C8.5866 17.0778 8.03181 14.4828 8.03181 14.4828C8.03181 14.4828 7.1898 16.6889 7.013 17.0157C6.6406 17.7041 5.9533 17.0151 5.9533 17.0151C5.7708 18.1367 7.2208 19.7446 7.637 20.1794C8.0228 20.19 8.4655 20.1822 8.9391 20.1368Z" fill="#FCFBCC"/>
</svg>
