<svg width="238" height="529" viewBox="0 0 238 529" fill="none" xmlns="http://www.w3.org/2000/svg">
<path d="M232.872 210.3C205.072 87.5 147.072 54.8 132.272 31.7C126.172 21.5 120.772 10.9 116.072 0C115.272 10.9 113.872 17.8 104.572 26.1C85.9718 42.7 6.87178 107.1 0.271778 246.6C-5.92822 376.7 95.8718 456.9 109.372 465.2C119.672 470.3 132.272 465.3 138.472 460.6C187.472 427 254.572 337.2 232.872 210.3Z" fill="#10AA50"/>
<path d="M120.272 396C117.672 428.2 115.872 446.9 109.372 465.3C109.372 465.3 113.672 496 116.672 528.4H127.272C129.772 505.5 133.672 482.8 138.872 460.4C125.072 453.6 120.872 424.2 120.272 396Z" fill="#B8C4C2"/>
<path d="M138.871 460.4C124.971 454 120.971 424 120.271 396C123.671 349.8 124.671 303.5 123.271 257.2C122.571 232.9 123.571 32.2 117.271 2.80005C121.571 12.8 126.571 22.4001 132.171 31.7001C146.971 54.8001 204.971 87.5 232.871 210.3C254.571 336.9 187.871 426.5 138.871 460.4Z" fill="#12924F"/>
</svg>
