<svg width="207" height="124" viewBox="0 0 207 124" fill="none" xmlns="http://www.w3.org/2000/svg">
<g clip-path="url(#clip0_377_564)">
<path d="M48.9421 32.6321H87.9011V35.7137H52.5134V58.9071H85.7908V61.9887H52.5134V87.4528H88.3069V90.5344H48.9421V32.6321ZM91.3912 32.6321H95.5306L113.874 58.0961L132.623 32.6321L158.124 0.286865L116.228 60.7723L137.817 90.5344H133.516L113.874 63.4484L94.1508 90.5344H89.9302L111.682 60.7723L91.3912 32.6321ZM139.359 35.7137V32.6321H183.756V35.7137H163.303V90.5344H159.732V35.7137H139.359Z" fill="white"/>
<path d="M0.202881 32.6321H4.66693L66.2235 124.303L40.7851 90.5344L3.93645 37.0112L3.77412 90.5344H0.202881V32.6321Z" fill="white"/>
<path d="M183.397 86.5228C184.135 86.5228 184.673 85.9602 184.673 85.2331C184.673 84.506 184.135 83.9434 183.397 83.9434C182.667 83.9434 182.12 84.506 182.12 85.2331C182.12 85.9602 182.667 86.5228 183.397 86.5228ZM186.906 83.1298C186.906 85.2764 188.461 86.6786 190.728 86.6786C193.142 86.6786 194.602 85.2331 194.602 82.723V73.8856H192.656V82.7143C192.656 84.1079 191.952 84.8522 190.71 84.8522C189.598 84.8522 188.843 84.1598 188.817 83.1298H186.906ZM197.147 83.0173C197.286 85.2504 199.153 86.6786 201.933 86.6786C204.903 86.6786 206.762 85.1812 206.762 82.7922C206.762 80.9139 205.702 79.8753 203.131 79.278L201.75 78.9405C200.117 78.5596 199.457 78.0489 199.457 77.1574C199.457 76.0322 200.482 75.2964 202.02 75.2964C203.479 75.2964 204.486 76.0149 204.669 77.1661H206.562C206.449 75.0627 204.591 73.5826 202.046 73.5826C199.309 73.5826 197.485 75.0627 197.485 77.2872C197.485 79.1222 198.519 80.2128 200.786 80.7408L202.402 81.1303C204.061 81.5198 204.79 82.0911 204.79 83.0432C204.79 84.1511 203.644 84.9561 202.08 84.9561C200.404 84.9561 199.24 84.2031 199.075 83.0173H197.147Z" fill="white"/>
</g>
<defs>
<clipPath id="clip0_377_564">
<rect width="207" height="124" fill="white"/>
</clipPath>
</defs>
</svg>
