<svg width="106" height="106" viewBox="0 0 106 106" fill="none" xmlns="http://www.w3.org/2000/svg">
<g clip-path="url(#clip0_377_520)">
<path d="M44.5 38.5H57.5C65.5 38.5 65.5 46.5 57.5 46.5H44.5V38.5ZM13.5 75.5H53.5V64.5H44.5V56.5H54.5C65.5 56.5 59.5 75.5 68.5 75.5H93.5V56.5H87.5V58.5C87.5 66.5 78.5 65.5 77.5 60.5C76.5 55.5 72.5 51.5 71.5 51.5C86.5 43.5 77.5 27.5 65.5 27.5H18.5V38.5H28.5V64.5H13.5V75.5Z" fill="white" stroke="white" stroke-linejoin="round"/>
<path d="M53 96C76.7482 96 96 76.7482 96 53C96 29.2518 76.7482 10 53 10C29.2518 10 10 29.2518 10 53C10 76.7482 29.2518 96 53 96Z" stroke="white" stroke-width="9"/>
<path d="M99 56L104 53L99 50V56Z" fill="white" stroke="white" stroke-width="3" stroke-linejoin="round"/>
<path d="M97.5309 64.9164L103.02 62.9495L98.7014 59.0317L97.5309 64.9164Z" fill="white" stroke="white" stroke-width="3" stroke-linejoin="round"/>
<path d="M94.3504 73.3751L100.118 72.5168L96.6465 67.8318L94.3504 73.3751Z" fill="white" stroke="white" stroke-width="3" stroke-linejoin="round"/>
<path d="M89.5809 81.0506L95.4049 81.334L92.9143 76.0618L89.5809 81.0506Z" fill="white" stroke="white" stroke-width="3" stroke-linejoin="round"/>
<path d="M83.4056 87.6483L89.0624 89.0625L87.6482 83.4056L83.4056 87.6483Z" fill="white" stroke="white" stroke-width="3" stroke-linejoin="round"/>
<path d="M76.0618 92.9144L81.3341 95.405L81.0507 89.5809L76.0618 92.9144Z" fill="white" stroke="white" stroke-width="3" stroke-linejoin="round"/>
<path d="M67.8318 96.6464L72.5169 100.118L73.3751 94.3503L67.8318 96.6464Z" fill="white" stroke="white" stroke-width="3" stroke-linejoin="round"/>
<path d="M59.0318 98.7014L62.9496 103.02L64.9165 97.5309L59.0318 98.7014Z" fill="white" stroke="white" stroke-width="3" stroke-linejoin="round"/>
<path d="M50 99L53 104L56 99H50Z" fill="white" stroke="white" stroke-width="3" stroke-linejoin="round"/>
<path d="M41.0836 97.5309L43.0505 103.02L46.9683 98.7014L41.0836 97.5309Z" fill="white" stroke="white" stroke-width="3" stroke-linejoin="round"/>
<path d="M32.6249 94.3504L33.4832 100.118L38.1682 96.6465L32.6249 94.3504Z" fill="white" stroke="white" stroke-width="3" stroke-linejoin="round"/>
<path d="M24.9494 89.5809L24.666 95.4049L29.9382 92.9143L24.9494 89.5809Z" fill="white" stroke="white" stroke-width="3" stroke-linejoin="round"/>
<path d="M18.3517 83.4056L16.9375 89.0624L22.5944 87.6482L18.3517 83.4056Z" fill="white" stroke="white" stroke-width="3" stroke-linejoin="round"/>
<path d="M13.0856 76.0618L10.595 81.3341L16.4191 81.0507L13.0856 76.0618Z" fill="white" stroke="white" stroke-width="3" stroke-linejoin="round"/>
<path d="M9.35344 67.8318L5.88209 72.5169L11.6495 73.3751L9.35344 67.8318Z" fill="white" stroke="white" stroke-width="3" stroke-linejoin="round"/>
<path d="M7.29857 59.0318L2.97992 62.9496L8.46912 64.9165L7.29857 59.0318Z" fill="white" stroke="white" stroke-width="3" stroke-linejoin="round"/>
<path d="M7 50L2 53L7 56L7 50Z" fill="white" stroke="white" stroke-width="3" stroke-linejoin="round"/>
<path d="M8.46913 41.0836L2.97993 43.0505L7.29858 46.9683L8.46913 41.0836Z" fill="white" stroke="white" stroke-width="3" stroke-linejoin="round"/>
<path d="M11.6496 32.6249L5.88217 33.4832L9.35352 38.1682L11.6496 32.6249Z" fill="white" stroke="white" stroke-width="3" stroke-linejoin="round"/>
<path d="M16.4191 24.9494L10.5951 24.666L13.0857 29.9382L16.4191 24.9494Z" fill="white" stroke="white" stroke-width="3" stroke-linejoin="round"/>
<path d="M22.5944 18.3517L16.9376 16.9375L18.3518 22.5944L22.5944 18.3517Z" fill="white" stroke="white" stroke-width="3" stroke-linejoin="round"/>
<path d="M29.9382 13.0856L24.6659 10.595L24.9493 16.4191L29.9382 13.0856Z" fill="white" stroke="white" stroke-width="3" stroke-linejoin="round"/>
<path d="M38.1682 9.35344L33.4831 5.88209L32.6249 11.6495L38.1682 9.35344Z" fill="white" stroke="white" stroke-width="3" stroke-linejoin="round"/>
<path d="M46.9682 7.29857L43.0504 2.97992L41.0835 8.46912L46.9682 7.29857Z" fill="white" stroke="white" stroke-width="3" stroke-linejoin="round"/>
<path d="M56 7L53 2L50 7L56 7Z" fill="white" stroke="white" stroke-width="3" stroke-linejoin="round"/>
<path d="M64.9164 8.46913L62.9495 2.97993L59.0317 7.29858L64.9164 8.46913Z" fill="white" stroke="white" stroke-width="3" stroke-linejoin="round"/>
<path d="M73.3751 11.6496L72.5168 5.88217L67.8318 9.35352L73.3751 11.6496Z" fill="white" stroke="white" stroke-width="3" stroke-linejoin="round"/>
<path d="M81.0506 16.4191L81.334 10.5951L76.0618 13.0857L81.0506 16.4191Z" fill="white" stroke="white" stroke-width="3" stroke-linejoin="round"/>
<path d="M87.6483 22.5944L89.0625 16.9376L83.4056 18.3518L87.6483 22.5944Z" fill="white" stroke="white" stroke-width="3" stroke-linejoin="round"/>
<path d="M92.9144 29.9382L95.405 24.6659L89.5809 24.9493L92.9144 29.9382Z" fill="white" stroke="white" stroke-width="3" stroke-linejoin="round"/>
<path d="M96.6464 38.1682L100.118 33.4831L94.3503 32.6249L96.6464 38.1682Z" fill="white" stroke="white" stroke-width="3" stroke-linejoin="round"/>
<path d="M98.7014 46.9682L103.02 43.0504L97.5309 41.0835L98.7014 46.9682Z" fill="white" stroke="white" stroke-width="3" stroke-linejoin="round"/>
<path d="M46 11L53 18L60 11H46Z" fill="white" stroke="white" stroke-width="6" stroke-linejoin="round"/>
<path d="M90.7812 33.3639L86.287 42.1844L95.1075 46.6787L90.7812 33.3639Z" fill="white" stroke="white" stroke-width="6" stroke-linejoin="round"/>
<path d="M83.3501 82.8643L73.5725 81.3156L72.0239 91.0933L83.3501 82.8643Z" fill="white" stroke="white" stroke-width="6" stroke-linejoin="round"/>
<path d="M33.9761 91.0933L32.4275 81.3156L22.6498 82.8643L33.9761 91.0933Z" fill="white" stroke="white" stroke-width="6" stroke-linejoin="round"/>
<path d="M10.8925 46.6787L19.713 42.1844L15.2187 33.3639L10.8925 46.6787Z" fill="white" stroke="white" stroke-width="6" stroke-linejoin="round"/>
</g>
<defs>
<clipPath id="clip0_377_520">
<rect width="106" height="106" fill="white"/>
</clipPath>
</defs>
</svg>
