<?xml version="1.0" standalone="no"?>
<!DOCTYPE svg PUBLIC "-//W3C//DTD SVG 20010904//EN"
 "http://www.w3.org/TR/2001/REC-SVG-20010904/DTD/svg10.dtd">
<svg version="1.0" xmlns="http://www.w3.org/2000/svg"
 width="256.000000pt" height="256.000000pt" viewBox="0 0 256.000000 256.000000"
 preserveAspectRatio="xMidYMid meet">

<g transform="translate(0.000000,256.000000) scale(0.100000,-0.100000)"
fill="#6C2498" stroke="none">
<path d="M1968 2296 c-19 -88 -36 -139 -58 -174 -34 -55 -36 -69 -15 -96 21
-27 19 -65 -5 -103 -22 -37 -31 -39 -69 -17 -18 10 -31 30 -38 57 -6 23 -20
70 -29 104 l-18 61 29 43 c25 36 30 52 30 104 0 82 -21 115 -73 115 -36 0
-254 -28 -258 -33 -1 -1 -16 -51 -34 -112 -17 -60 -38 -120 -46 -132 -15 -24
-59 -50 -106 -64 -26 -7 -30 -5 -43 27 -12 29 -19 34 -46 34 -25 0 -40 9 -67
40 -39 46 -55 47 -62 4 -5 -27 -8 -29 -60 -32 -63 -4 -76 -12 -97 -64 l-15
-38 -52 80 c-43 69 -55 80 -76 78 -27 -3 -37 -28 -39 -95 -1 -37 7 -52 64
-128 36 -47 60 -85 55 -85 -23 0 -88 41 -150 94 -64 55 -100 70 -100 41 0 -8
11 -43 24 -79 l23 -65 -27 14 c-33 17 -151 47 -295 75 -60 11 -120 23 -132 26
-38 8 -26 -14 19 -37 37 -19 305 -197 348 -232 12 -9 16 -32 15 -96 l0 -84
-85 -29 c-46 -15 -93 -28 -105 -28 -13 0 -31 17 -50 45 -32 48 -39 50 -112 36
-35 -7 -42 -5 -46 9 -2 9 -21 26 -42 36 -32 17 -42 30 -62 85 -24 64 -43 95
-43 70 0 -26 23 -107 35 -121 24 -30 26 -52 6 -57 -19 -5 -36 -31 -27 -41 3
-2 18 0 33 7 34 14 78 23 69 14 -3 -4 1 -15 11 -25 12 -13 30 -18 70 -18 47 0
57 -4 83 -32 16 -19 30 -45 30 -59 0 -14 7 -48 15 -75 8 -27 15 -52 15 -56 0
-4 -23 -6 -51 -5 -45 2 -54 -1 -72 -26 -19 -24 -20 -31 -9 -62 15 -40 3 -72
-47 -119 -18 -18 -31 -40 -31 -55 0 -33 66 -95 165 -154 66 -39 85 -46 112
-41 32 6 33 5 33 -25 0 -33 29 -71 54 -71 23 0 16 -119 -8 -132 -42 -23 -86
15 -86 76 0 28 -21 74 -37 81 -8 2 -13 -4 -13 -15 0 -11 5 -20 10 -20 6 0 10
-6 8 -12 -11 -58 44 -148 90 -148 15 0 39 -16 66 -43 51 -53 141 -82 230 -75
l56 5 0 -33 c0 -24 5 -33 21 -37 17 -5 20 -11 17 -31 -7 -33 10 -38 87 -27 65
9 75 7 75 -14 0 -14 29 -10 40 6 3 4 37 -1 75 -12 39 -10 99 -20 135 -20 49 0
86 -9 151 -34 78 -31 90 -33 125 -23 22 6 48 20 60 30 31 27 51 22 80 -22 26
-40 27 -40 88 -39 33 0 70 4 81 8 16 7 14 9 -14 14 -19 4 -44 7 -56 7 -26 0
-75 58 -75 88 0 13 13 22 48 33 l47 15 3 62 3 63 37 -7 c20 -3 39 -6 42 -6 41
0 53 6 75 41 26 38 115 255 115 278 0 7 1 13 3 13 1 0 79 -16 172 -35 94 -19
178 -35 188 -35 26 0 21 15 -10 29 -53 23 -143 86 -143 99 0 7 15 43 34 80 65
130 108 292 87 330 -6 12 -26 22 -52 26 -54 9 -79 23 -79 44 0 9 -16 55 -35
102 -19 47 -35 90 -35 95 0 12 188 165 268 219 30 20 58 33 63 30 5 -3 9 4 9
15 0 19 -2 19 -61 5 -33 -8 -101 -26 -151 -40 l-91 -25 -49 48 c-48 47 -49 49
-43 95 6 42 4 50 -19 73 -30 29 -36 30 -105 9 -29 -8 -54 -14 -55 -12 -1 2
-10 35 -19 75 -16 70 -16 74 4 120 15 35 22 79 26 161 3 61 4 112 2 112 -2 0
-16 -56 -31 -124z m-118 -958 l0 -303 -122 -122 -123 -123 -95 0 -96 0 -64
-65 -64 -65 -68 0 -68 0 0 65 0 65 -115 0 -115 0 0 339 0 339 31 86 32 86 433
0 434 0 0 -302z"/>
<path d="M1070 1245 l0 -305 95 0 95 0 0 -62 0 -62 63 62 63 62 120 0 121 0
71 74 72 74 0 231 0 231 -350 0 -350 0 0 -305z m320 10 l0 -125 -45 0 -45 0 0
125 0 125 45 0 45 0 0 -125z m230 0 l0 -125 -45 0 -45 0 0 125 0 125 45 0 45
0 0 -125z"/>
</g>
</svg>
