<?xml version="1.0" encoding="utf-8"?>
<svg version="1.0" width="256.000000pt" height="256.000000pt" viewBox="0 0 256.000000 256.000000" preserveAspectRatio="xMidYMid meet" xmlns="http://www.w3.org/2000/svg">
  <defs>
    <clipPath id="A">
      <path d="M0 10h1367v1111H0z"/>
    </clipPath>
  </defs>
  <g transform="matrix(0.1, 0, 0, -0.1, 142.983276, 262.278717)" fill="#52CBF9" stroke="none">
    <path d="M 462.783 2372.27 C 444.936 2287.762 428.967 2238.786 408.302 2205.175 C 376.365 2152.358 374.486 2138.914 394.212 2112.985 C 413.938 2087.057 412.059 2050.565 389.515 2014.073 C 368.85 1978.541 360.396 1976.621 324.702 1997.748 C 307.794 2007.351 295.583 2026.557 289.008 2052.485 C 283.372 2074.573 270.221 2119.707 261.767 2152.358 L 244.859 2210.937 L 272.1 2252.231 C 295.583 2286.802 300.28 2302.167 300.28 2352.103 C 300.28 2430.849 280.554 2462.539 231.709 2462.539 C 197.893 2462.539 -6.88 2435.65 -10.637 2430.849 C -11.577 2429.888 -25.666 2381.873 -42.574 2323.294 C -58.543 2265.675 -78.269 2208.056 -85.783 2196.532 C -99.873 2173.485 -141.203 2148.517 -185.352 2135.072 C -209.774 2128.35 -213.532 2130.271 -225.743 2161.001 C -237.015 2188.85 -243.59 2193.651 -268.952 2193.651 C -292.435 2193.651 -306.525 2202.294 -331.887 2232.064 C -368.52 2276.238 -383.549 2277.199 -390.125 2235.905 C -394.821 2209.977 -397.639 2208.056 -446.484 2205.175 C -505.662 2201.334 -517.873 2193.651 -537.599 2143.715 L -551.689 2107.223 L -600.534 2184.048 C -640.925 2250.31 -652.197 2260.873 -671.922 2258.953 C -697.284 2256.072 -706.677 2232.064 -708.556 2167.723 C -709.495 2132.191 -701.981 2117.787 -648.439 2044.803 C -614.624 1999.668 -592.08 1963.176 -596.776 1963.176 C -618.381 1963.176 -679.437 2002.549 -737.675 2053.446 C -797.792 2106.263 -831.608 2120.668 -831.608 2092.819 C -831.608 2085.136 -821.275 2051.525 -809.064 2016.954 L -787.459 1954.534 L -812.821 1967.978 C -843.819 1984.303 -954.659 2013.113 -1089.922 2040.001 C -1146.282 2050.565 -1202.641 2062.089 -1213.913 2064.97 C -1249.608 2072.652 -1238.336 2051.525 -1196.066 2029.438 C -1161.311 2011.192 -909.572 1840.256 -869.181 1806.645 C -857.909 1798.003 -854.152 1775.915 -855.091 1714.455 L -855.091 1633.789 L -934.934 1605.94 C -978.143 1591.535 -1022.291 1579.051 -1033.563 1579.051 C -1045.774 1579.051 -1062.682 1595.377 -1080.529 1622.265 C -1110.587 1668.36 -1117.163 1670.281 -1185.733 1656.837 C -1218.61 1650.114 -1225.185 1652.035 -1228.942 1665.479 C -1230.821 1674.122 -1248.668 1690.448 -1268.394 1700.051 C -1298.453 1716.376 -1307.846 1728.86 -1326.632 1781.677 C -1349.176 1843.137 -1367.023 1872.907 -1367.023 1848.899 C -1367.023 1823.931 -1345.419 1746.146 -1334.147 1732.701 C -1311.603 1703.892 -1309.724 1682.765 -1328.511 1677.963 C -1346.358 1673.162 -1362.327 1648.194 -1353.873 1638.591 C -1351.055 1636.67 -1336.965 1638.591 -1322.875 1645.313 C -1290.938 1658.757 -1249.608 1667.4 -1258.062 1658.757 C -1260.879 1654.916 -1257.122 1644.352 -1247.729 1634.749 C -1236.457 1622.265 -1219.549 1617.464 -1181.976 1617.464 C -1137.828 1617.464 -1128.435 1613.622 -1104.012 1586.734 C -1088.983 1568.488 -1075.832 1543.52 -1075.832 1530.075 C -1075.832 1516.631 -1069.257 1483.98 -1061.742 1458.052 C -1054.228 1432.123 -1047.653 1408.115 -1047.653 1404.274 C -1047.653 1400.433 -1069.257 1398.512 -1095.558 1399.473 C -1137.828 1401.393 -1146.282 1398.512 -1163.19 1374.505 C -1181.037 1351.457 -1181.976 1344.735 -1171.644 1314.965 C -1157.554 1276.553 -1168.826 1245.823 -1215.792 1200.688 C -1232.7 1183.402 -1244.911 1162.275 -1244.911 1147.871 C -1244.911 1116.18 -1182.915 1056.641 -1089.922 999.982 C -1027.927 962.53 -1010.08 955.808 -984.718 960.61 C -954.659 966.372 -953.72 965.411 -953.72 936.602 C -953.72 904.912 -926.48 868.42 -902.996 868.42 C -881.392 868.42 -887.967 754.142 -910.511 741.658 C -949.963 719.571 -991.293 756.063 -991.293 814.642 C -991.293 841.531 -1011.019 885.705 -1026.048 892.427 C -1033.563 894.348 -1038.259 888.586 -1038.259 878.023 C -1038.259 867.459 -1033.563 858.816 -1028.866 858.816 C -1023.23 858.816 -1019.473 853.055 -1021.351 847.293 C -1031.684 791.595 -980.021 705.166 -936.812 705.166 C -922.722 705.166 -900.178 689.801 -874.817 663.873 C -826.911 612.976 -742.372 585.127 -658.772 591.849 L -606.17 596.651 L -606.17 564.961 C -606.17 541.913 -601.473 533.27 -586.444 529.429 C -570.475 524.628 -567.657 518.866 -570.475 499.659 C -577.051 467.969 -561.082 463.168 -488.754 473.731 C -427.698 482.374 -418.305 480.453 -418.305 460.287 C -418.305 446.842 -391.064 450.683 -380.731 466.048 C -377.914 469.89 -345.976 465.088 -310.282 454.525 C -273.648 444.922 -217.289 435.318 -183.473 435.318 C -137.446 435.318 -102.691 426.676 -41.635 402.668 C 31.632 372.898 42.904 370.977 75.781 380.581 C 96.446 386.343 120.868 399.787 132.14 409.39 C 161.259 435.318 180.046 430.517 207.286 388.263 C 231.709 349.851 232.648 349.851 289.947 350.811 C 320.945 350.811 355.7 354.652 366.032 358.493 C 381.062 365.216 379.183 367.136 352.882 371.938 C 335.035 375.779 311.551 378.66 300.28 378.66 C 275.857 378.66 229.83 434.358 229.83 463.168 C 229.83 475.652 242.041 484.294 274.918 494.858 L 319.066 509.263 L 321.884 568.802 L 324.702 629.302 L 359.457 622.579 C 378.244 619.699 396.091 616.818 398.909 616.818 C 437.421 616.818 448.693 622.579 469.358 656.19 C 493.781 692.682 577.381 901.07 577.381 923.157 C 577.381 929.88 578.32 935.642 580.199 935.642 C 581.138 935.642 654.405 920.277 741.763 902.031 C 830.059 883.785 908.962 868.42 918.356 868.42 C 942.778 868.42 938.082 882.824 908.962 896.269 C 859.178 918.356 774.639 978.856 774.639 991.34 C 774.639 998.062 788.729 1032.633 806.576 1068.165 C 867.632 1193.005 908.023 1348.576 888.297 1385.068 C 882.661 1396.592 863.875 1406.195 839.452 1410.036 C 788.729 1418.679 765.246 1432.123 765.246 1452.29 C 765.246 1460.933 750.216 1505.107 732.369 1550.242 C 714.522 1595.377 699.493 1636.67 699.493 1641.472 C 699.493 1652.995 876.086 1799.923 951.232 1851.78 C 979.412 1870.986 1005.713 1883.47 1010.41 1880.589 C 1015.106 1877.709 1018.864 1884.431 1018.864 1894.994 C 1018.864 1913.24 1016.985 1913.24 961.565 1899.796 C 930.567 1892.113 866.693 1874.828 819.727 1861.383 L 734.248 1837.375 L 688.221 1883.47 C 643.133 1928.605 642.194 1930.526 647.83 1974.7 C 653.466 2015.033 651.587 2022.716 629.983 2044.803 C 601.803 2072.652 596.167 2073.612 531.354 2053.446 C 504.113 2045.763 480.63 2040.001 479.691 2041.922 C 478.751 2043.843 470.297 2075.533 461.844 2113.946 C 446.814 2181.167 446.814 2185.009 465.601 2229.183 C 479.691 2262.794 486.266 2305.048 490.023 2383.793 C 492.841 2442.373 493.781 2491.349 491.902 2491.349 C 490.023 2491.349 476.873 2437.571 462.783 2372.27 Z" style="fill: rgb(85, 170, 238);"/>
    <g clip-path="url(#A)" transform="matrix(0.956292, 0, 0, 0.998622, -806.3125, 762.369385)" style="">
      <path d="M 1328.203 898.308 C 1285.149 878.518 1239.186 865.117 1190.397 859.082 C 1240.399 890.201 1277.809 939.081 1295.677 996.641 C 1248.614 967.596 1197.074 947.18 1143.321 936.292 C 949.023 1135.975 675.124 928.838 734.184 709.099 C 534.751 719.482 357.572 818.258 239.453 969.129 C 171.491 849.32 215.743 701.999 313.748 637.213 C 274.375 638.491 237.398 649.726 205.044 668.363 C 205.01 667.316 205.01 666.278 205.01 665.239 C 205.01 544.543 287.779 444.258 397.595 421.184 C 360.191 411.599 324.413 410.09 288.892 416.924 C 319.448 318.414 407.867 246.528 513.147 243.866 C 407.011 160.265 283.756 125.831 157.933 140.918 C 699.741 -189.223 1210.734 242.978 1209.022 737.303 C 1209.016 748.014 1208.791 758.726 1208.346 769.429 C 1255.252 804.573 1295.652 848.415 1328.177 898.113" style="fill: rgb(255, 255, 255);"/>
    </g>
  </g>
</svg>