<svg xmlns="http://www.w3.org/2000/svg" xmlns:svg="http://www.w3.org/2000/svg" xmlns:xlink="http://www.w3.org/1999/xlink" id="svg8" width="662.234" height="663.504" version="1.1" viewBox="0 0 175.216 175.552"><defs id="defs2"><filter style="color-interpolation-filters:sRGB" id="filter1769" width="1.115" height="1.114" x="-.057" y="-.057"><feGaussianBlur id="feGaussianBlur1771" stdDeviation="3.531"/></filter><linearGradient id="linear0" x1="0" x2="1" y1="0" y2="0" gradientTransform="matrix(0,-143.29621,143.29621,0,-40.015187,153.53099)" gradientUnits="userSpaceOnUse"><stop id="stop64" style="stop-color:#20b038;stop-opacity:1" offset="0"/><stop id="stop66" style="stop-color:#20b038;stop-opacity:1" offset=".008"/><stop id="stop68" style="stop-color:#21b039;stop-opacity:1" offset=".016"/><stop id="stop70" style="stop-color:#21b139;stop-opacity:1" offset=".023"/><stop id="stop72" style="stop-color:#22b139;stop-opacity:1" offset=".031"/><stop id="stop74" style="stop-color:#22b13a;stop-opacity:1" offset=".039"/><stop id="stop76" style="stop-color:#23b23a;stop-opacity:1" offset=".047"/><stop id="stop78" style="stop-color:#23b23b;stop-opacity:1" offset=".055"/><stop id="stop80" style="stop-color:#24b23b;stop-opacity:1" offset=".063"/><stop id="stop82" style="stop-color:#24b33b;stop-opacity:1" offset=".07"/><stop id="stop84" style="stop-color:#25b33c;stop-opacity:1" offset=".078"/><stop id="stop86" style="stop-color:#25b33c;stop-opacity:1" offset=".086"/><stop id="stop88" style="stop-color:#26b33c;stop-opacity:1" offset=".094"/><stop id="stop90" style="stop-color:#26b43d;stop-opacity:1" offset=".102"/><stop id="stop92" style="stop-color:#27b43d;stop-opacity:1" offset=".109"/><stop id="stop94" style="stop-color:#27b43e;stop-opacity:1" offset=".117"/><stop id="stop96" style="stop-color:#28b53e;stop-opacity:1" offset=".125"/><stop id="stop98" style="stop-color:#28b53e;stop-opacity:1" offset=".133"/><stop id="stop100" style="stop-color:#29b53f;stop-opacity:1" offset=".141"/><stop id="stop102" style="stop-color:#29b53f;stop-opacity:1" offset=".148"/><stop id="stop104" style="stop-color:#2ab640;stop-opacity:1" offset=".156"/><stop id="stop106" style="stop-color:#2ab640;stop-opacity:1" offset=".164"/><stop id="stop108" style="stop-color:#2bb640;stop-opacity:1" offset=".172"/><stop id="stop110" style="stop-color:#2bb741;stop-opacity:1" offset=".18"/><stop id="stop112" style="stop-color:#2cb741;stop-opacity:1" offset=".188"/><stop id="stop114" style="stop-color:#2cb742;stop-opacity:1" offset=".195"/><stop id="stop116" style="stop-color:#2db842;stop-opacity:1" offset=".203"/><stop id="stop118" style="stop-color:#2db842;stop-opacity:1" offset=".211"/><stop id="stop120" style="stop-color:#2eb843;stop-opacity:1" offset=".219"/><stop id="stop122" style="stop-color:#2eb843;stop-opacity:1" offset=".227"/><stop id="stop124" style="stop-color:#2fb944;stop-opacity:1" offset=".234"/><stop id="stop126" style="stop-color:#2fb944;stop-opacity:1" offset=".242"/><stop id="stop128" style="stop-color:#30b944;stop-opacity:1" offset=".25"/><stop id="stop130" style="stop-color:#30ba45;stop-opacity:1" offset=".258"/><stop id="stop132" style="stop-color:#31ba45;stop-opacity:1" offset=".266"/><stop id="stop134" style="stop-color:#31ba45;stop-opacity:1" offset=".273"/><stop id="stop136" style="stop-color:#32bb46;stop-opacity:1" offset=".281"/><stop id="stop138" style="stop-color:#32bb46;stop-opacity:1" offset=".289"/><stop id="stop140" style="stop-color:#33bb47;stop-opacity:1" offset=".297"/><stop id="stop142" style="stop-color:#33bb47;stop-opacity:1" offset=".305"/><stop id="stop144" style="stop-color:#34bc47;stop-opacity:1" offset=".313"/><stop id="stop146" style="stop-color:#34bc48;stop-opacity:1" offset=".32"/><stop id="stop148" style="stop-color:#35bc48;stop-opacity:1" offset=".328"/><stop id="stop150" style="stop-color:#35bd49;stop-opacity:1" offset=".336"/><stop id="stop152" style="stop-color:#36bd49;stop-opacity:1" offset=".344"/><stop id="stop154" style="stop-color:#36bd49;stop-opacity:1" offset=".352"/><stop id="stop156" style="stop-color:#37be4a;stop-opacity:1" offset=".359"/><stop id="stop158" style="stop-color:#37be4a;stop-opacity:1" offset=".367"/><stop id="stop160" style="stop-color:#38be4b;stop-opacity:1" offset=".375"/><stop id="stop162" style="stop-color:#38be4b;stop-opacity:1" offset=".383"/><stop id="stop164" style="stop-color:#39bf4b;stop-opacity:1" offset=".391"/><stop id="stop166" style="stop-color:#39bf4c;stop-opacity:1" offset=".398"/><stop id="stop168" style="stop-color:#3abf4c;stop-opacity:1" offset=".406"/><stop id="stop170" style="stop-color:#3ac04d;stop-opacity:1" offset=".414"/><stop id="stop172" style="stop-color:#3bc04d;stop-opacity:1" offset=".422"/><stop id="stop174" style="stop-color:#3bc04d;stop-opacity:1" offset=".43"/><stop id="stop176" style="stop-color:#3cc04e;stop-opacity:1" offset=".438"/><stop id="stop178" style="stop-color:#3cc14e;stop-opacity:1" offset=".445"/><stop id="stop180" style="stop-color:#3dc14e;stop-opacity:1" offset=".453"/><stop id="stop182" style="stop-color:#3dc14f;stop-opacity:1" offset=".461"/><stop id="stop184" style="stop-color:#3ec24f;stop-opacity:1" offset=".469"/><stop id="stop186" style="stop-color:#3ec250;stop-opacity:1" offset=".477"/><stop id="stop188" style="stop-color:#3fc250;stop-opacity:1" offset=".484"/><stop id="stop190" style="stop-color:#3fc350;stop-opacity:1" offset=".492"/><stop id="stop192" style="stop-color:#40c351;stop-opacity:1" offset=".5"/><stop id="stop194" style="stop-color:#40c351;stop-opacity:1" offset=".508"/><stop id="stop196" style="stop-color:#41c352;stop-opacity:1" offset=".516"/><stop id="stop198" style="stop-color:#41c452;stop-opacity:1" offset=".523"/><stop id="stop200" style="stop-color:#42c452;stop-opacity:1" offset=".531"/><stop id="stop202" style="stop-color:#42c453;stop-opacity:1" offset=".539"/><stop id="stop204" style="stop-color:#43c553;stop-opacity:1" offset=".547"/><stop id="stop206" style="stop-color:#43c554;stop-opacity:1" offset=".555"/><stop id="stop208" style="stop-color:#44c554;stop-opacity:1" offset=".563"/><stop id="stop210" style="stop-color:#44c654;stop-opacity:1" offset=".57"/><stop id="stop212" style="stop-color:#45c655;stop-opacity:1" offset=".578"/><stop id="stop214" style="stop-color:#45c655;stop-opacity:1" offset=".586"/><stop id="stop216" style="stop-color:#46c655;stop-opacity:1" offset=".594"/><stop id="stop218" style="stop-color:#46c756;stop-opacity:1" offset=".602"/><stop id="stop220" style="stop-color:#47c756;stop-opacity:1" offset=".609"/><stop id="stop222" style="stop-color:#47c757;stop-opacity:1" offset=".617"/><stop id="stop224" style="stop-color:#48c857;stop-opacity:1" offset=".625"/><stop id="stop226" style="stop-color:#48c857;stop-opacity:1" offset=".633"/><stop id="stop228" style="stop-color:#49c858;stop-opacity:1" offset=".641"/><stop id="stop230" style="stop-color:#49c858;stop-opacity:1" offset=".648"/><stop id="stop232" style="stop-color:#4ac959;stop-opacity:1" offset=".656"/><stop id="stop234" style="stop-color:#4ac959;stop-opacity:1" offset=".664"/><stop id="stop236" style="stop-color:#4bc959;stop-opacity:1" offset=".672"/><stop id="stop238" style="stop-color:#4bca5a;stop-opacity:1" offset=".68"/><stop id="stop240" style="stop-color:#4cca5a;stop-opacity:1" offset=".688"/><stop id="stop242" style="stop-color:#4cca5b;stop-opacity:1" offset=".695"/><stop id="stop244" style="stop-color:#4dcb5b;stop-opacity:1" offset=".703"/><stop id="stop246" style="stop-color:#4dcb5b;stop-opacity:1" offset=".711"/><stop id="stop248" style="stop-color:#4ecb5c;stop-opacity:1" offset=".719"/><stop id="stop250" style="stop-color:#4ecb5c;stop-opacity:1" offset=".727"/><stop id="stop252" style="stop-color:#4fcc5d;stop-opacity:1" offset=".734"/><stop id="stop254" style="stop-color:#4fcc5d;stop-opacity:1" offset=".742"/><stop id="stop256" style="stop-color:#50cc5d;stop-opacity:1" offset=".75"/><stop id="stop258" style="stop-color:#50cd5e;stop-opacity:1" offset=".758"/><stop id="stop260" style="stop-color:#51cd5e;stop-opacity:1" offset=".766"/><stop id="stop262" style="stop-color:#51cd5e;stop-opacity:1" offset=".773"/><stop id="stop264" style="stop-color:#52ce5f;stop-opacity:1" offset=".781"/><stop id="stop266" style="stop-color:#52ce5f;stop-opacity:1" offset=".789"/><stop id="stop268" style="stop-color:#53ce60;stop-opacity:1" offset=".797"/><stop id="stop270" style="stop-color:#53ce60;stop-opacity:1" offset=".805"/><stop id="stop272" style="stop-color:#54cf60;stop-opacity:1" offset=".813"/><stop id="stop274" style="stop-color:#54cf61;stop-opacity:1" offset=".82"/><stop id="stop276" style="stop-color:#55cf61;stop-opacity:1" offset=".828"/><stop id="stop278" style="stop-color:#55d062;stop-opacity:1" offset=".836"/><stop id="stop280" style="stop-color:#56d062;stop-opacity:1" offset=".844"/><stop id="stop282" style="stop-color:#56d062;stop-opacity:1" offset=".852"/><stop id="stop284" style="stop-color:#57d163;stop-opacity:1" offset=".859"/><stop id="stop286" style="stop-color:#57d163;stop-opacity:1" offset=".867"/><stop id="stop288" style="stop-color:#58d164;stop-opacity:1" offset=".875"/><stop id="stop290" style="stop-color:#58d164;stop-opacity:1" offset=".883"/><stop id="stop292" style="stop-color:#59d264;stop-opacity:1" offset=".891"/><stop id="stop294" style="stop-color:#59d265;stop-opacity:1" offset=".898"/><stop id="stop296" style="stop-color:#5ad265;stop-opacity:1" offset=".906"/><stop id="stop298" style="stop-color:#5ad366;stop-opacity:1" offset=".914"/><stop id="stop300" style="stop-color:#5bd366;stop-opacity:1" offset=".922"/><stop id="stop302" style="stop-color:#5bd366;stop-opacity:1" offset=".93"/><stop id="stop304" style="stop-color:#5cd367;stop-opacity:1" offset=".938"/><stop id="stop306" style="stop-color:#5cd467;stop-opacity:1" offset=".945"/><stop id="stop308" style="stop-color:#5dd467;stop-opacity:1" offset=".953"/><stop id="stop310" style="stop-color:#5dd468;stop-opacity:1" offset=".961"/><stop id="stop312" style="stop-color:#5ed568;stop-opacity:1" offset=".969"/><stop id="stop314" style="stop-color:#5ed569;stop-opacity:1" offset=".977"/><stop id="stop316" style="stop-color:#5fd569;stop-opacity:1" offset=".984"/><stop id="stop318" style="stop-color:#5fd669;stop-opacity:1" offset=".992"/><stop id="stop320" style="stop-color:#60d66a;stop-opacity:1" offset="1"/></linearGradient><linearGradient id="linearGradient299" x1="85.915" x2="86.535" y1="32.567" y2="137.092" gradientTransform="translate(-4.0155834e-7)" gradientUnits="userSpaceOnUse" xlink:href="#linearGradient297"/><linearGradient id="linearGradient297"><stop style="stop-color:#57d163;stop-opacity:1" id="stop293" offset="0"/><stop style="stop-color:#23b33a;stop-opacity:1" id="stop295" offset="1"/></linearGradient></defs><path style="fill:#b3b3b3;fill-opacity:1;fill-rule:nonzero;stroke:none;stroke-width:.352777;filter:url(#filter1769)" id="path400-6" d="m 54.532411,138.4499 2.23518,1.32429 c 9.3872,5.57141 20.14968,8.51766 31.12575,8.52317 h 0.0234 c 33.706819,0 61.139419,-27.42573 61.153199,-61.135293 0.006,-16.335262 -6.34862,-31.696254 -17.89521,-43.251105 -11.54655,-11.554848 -26.89927,-17.921385 -43.234539,-17.928275 -33.73299,0 -61.1656,27.422959 -61.178,61.12977 -0.005,11.55072 3.22736,22.801023 9.34861,32.535483 l 1.45521,2.31235 -6.17912,22.55848 z m -40.8106,23.54378 10.43864,-38.11378 c -6.43819,-11.15384 -9.82541,-23.80836 -9.82128,-36.771573 0.0165,-40.555667 33.02056,-73.550032 73.5776,-73.550032 19.681139,0.0096 38.153739,7.668782 52.047119,21.571809 13.88925,13.903024 21.53736,32.38252 21.53047,52.037483 -0.0179,40.552903 -33.02744,73.552783 -73.577589,73.552783 -0.003,0 0.003,0 0,0 h -0.0317 c -12.31278,-0.005 -24.41195,-3.0937 -35.15927,-8.95449 z m 0,0"/><path style="fill:#fff;fill-opacity:1;fill-rule:nonzero;stroke:none;stroke-width:.352777" id="path400-6-0" d="m 12.965861,161.23773 10.43864,-38.11379 c -6.43819,-11.15383 -9.82541,-23.808355 -9.82128,-36.771565 0.0165,-40.555666 33.02056,-73.550032 73.5776,-73.550032 19.681139,0.0096 38.153729,7.668782 52.047119,21.57181 13.88925,13.903023 21.53735,32.38252 21.53046,52.037481 -0.0179,40.552906 -33.02744,73.552786 -73.577579,73.552786 -0.003,0 0.003,0 0,0 h -0.0317 c -12.31278,-0.005 -24.41195,-3.0937 -35.15927,-8.95449 z"/><path style="fill:url(#linearGradient1780);fill-opacity:1;stroke-width:.352777" id="path61-8" d="m 87.184441,25.226628 c -33.73298,0 -61.16577,27.423305 -61.17817,61.130114 -0.005,11.550722 3.22753,22.801018 9.34878,32.535478 l 1.45521,2.31201 -6.17947,22.55883 23.14588,-6.06888 2.235,1.32395 c 9.3872,5.57141 20.14968,8.518 31.12575,8.52351 h 0.0233 c 33.706819,0 61.139589,-27.42571 61.153369,-61.135288 0.006,-16.335261 -6.34844,-31.696255 -17.89503,-43.251106 C 118.87251,31.6004 103.51976,25.233518 87.184491,25.226628 Z"/><metadata id="metadata1800"/><path id="path15" style="opacity:1;fill:url(#linearGradient299);fill-opacity:1;stroke-width:.514927;stroke-linecap:round;stroke-linejoin:round;stop-color:#000" d="m 87.184341,25.226879 c -33.732988,0 -61.165777,27.422792 -61.178177,61.129602 -0.005,11.550719 3.227534,22.801019 9.348783,32.535479 l 1.455209,2.31252 -6.179468,22.55832 23.145875,-6.06888 2.235007,1.32446 c 9.3872,5.57141 20.149677,8.51749 31.125747,8.523 h 0.02326 c 33.706823,0 61.139593,-27.42571 61.153373,-61.13529 0.006,-16.335261 -6.34844,-31.696257 -17.89503,-43.251106 C 118.87237,31.600135 103.51961,25.233769 87.184341,25.226879 Z"/><path style="fill:#fff;fill-opacity:1;fill-rule:evenodd;stroke:none;stroke-width:.352777" id="path418-6" d="m 68.772283,55.602835 c -1.37803,-3.060626 -2.82773,-3.122636 -4.13686,-3.176378 -1.07212,-0.04548 -2.29857,-0.04272 -3.52365,-0.04272 -1.22645,0 -3.21772,0.460261 -4.90168,2.299944 -1.68534,1.839679 -6.43544,6.286612 -6.43544,15.332052 0,9.045445 6.5884,17.784963 7.50617,19.012796 0.91916,1.226452 12.71792,20.381181 31.40549,27.749551 15.529117,6.12401 18.688957,4.90582 22.061017,4.59989 3.37068,-0.30592 10.87685,-4.44692 12.40785,-8.73951 1.53238,-4.29259 1.53238,-7.97058 1.07349,-8.73952 -0.46026,-0.76757 -1.68533,-1.22645 -3.52502,-2.14561 -1.8383,-0.91915 -10.87685,-5.367458 -12.56219,-5.980686 -1.68534,-0.613224 -2.91042,-0.919151 -4.13687,0.920533 -1.22508,1.83968 -4.745968,5.979313 -5.819458,7.205763 -1.07211,1.22783 -2.14422,1.38079 -3.98391,0.46164 -1.838299,-0.92191 -7.759729,-2.8608 -14.783589,-9.123992 -5.4653,-4.872741 -9.15431,-10.890633 -10.2278,-12.730316 -1.07211,-1.839679 -0.11438,-2.834624 0.80753,-3.751019 0.82544,-0.824068 1.8383,-2.146985 2.75883,-3.220474 0.9164,-1.073491 1.2237,-1.839682 1.83555,-3.064756 0.61323,-1.227833 0.3073,-2.301324 -0.15296,-3.220479 -0.45889,-0.919149 -4.03214,-10.011447 -5.6665,-13.646709"/></svg>