<?xml version="1.0" standalone="no"?>
<!DOCTYPE svg PUBLIC "-//W3C//DTD SVG 20010904//EN"
 "http://www.w3.org/TR/2001/REC-SVG-20010904/DTD/svg10.dtd">
<svg version="1.0" xmlns="http://www.w3.org/2000/svg"
 width="256.000000pt" height="256.000000pt" viewBox="0 0 256.000000 256.000000"
 preserveAspectRatio="xMidYMid meet">

<g transform="translate(0.000000,256.000000) scale(0.100000,-0.100000)"
fill="#FE0000" stroke="none">
<path d="M1968 2296 c-19 -88 -36 -139 -58 -174 -34 -55 -36 -69 -15 -96 21
-27 19 -65 -5 -103 -22 -37 -31 -39 -69 -17 -18 10 -31 30 -38 57 -6 23 -20
70 -29 104 l-18 61 29 43 c25 36 30 52 30 104 0 82 -21 115 -73 115 -36 0
-254 -28 -258 -33 -1 -1 -16 -51 -34 -112 -17 -60 -38 -120 -46 -132 -15 -24
-59 -50 -106 -64 -26 -7 -30 -5 -43 27 -12 29 -19 34 -46 34 -25 0 -40 9 -67
40 -39 46 -55 47 -62 4 -5 -27 -8 -29 -60 -32 -63 -4 -76 -12 -97 -64 l-15
-38 -52 80 c-43 69 -55 80 -76 78 -27 -3 -37 -28 -39 -95 -1 -37 7 -52 64
-128 36 -47 60 -85 55 -85 -23 0 -88 41 -150 94 -64 55 -100 70 -100 41 0 -8
11 -43 24 -79 l23 -65 -27 14 c-33 17 -151 47 -295 75 -60 11 -120 23 -132 26
-38 8 -26 -14 19 -37 37 -19 305 -197 348 -232 12 -9 16 -32 15 -96 l0 -84
-85 -29 c-46 -15 -93 -28 -105 -28 -13 0 -31 17 -50 45 -32 48 -39 50 -112 36
-35 -7 -42 -5 -46 9 -2 9 -21 25 -42 36 -29 15 -42 31 -57 69 -30 81 -38 98
-44 92 -8 -7 17 -117 27 -117 6 0 29 -53 29 -66 0 -2 -9 -4 -19 -4 -16 0 -31
-18 -31 -36 0 -11 30 -2 50 16 26 22 40 26 40 9 0 -5 6 -7 13 -3 6 4 9 3 4 -1
-4 -5 0 -17 10 -27 12 -13 30 -18 70 -18 47 0 57 -4 83 -32 16 -19 30 -45 30
-59 0 -14 7 -48 15 -75 8 -27 15 -52 15 -56 0 -4 -23 -6 -51 -5 -45 2 -54 -1
-72 -26 -19 -24 -20 -31 -9 -62 15 -40 3 -72 -47 -119 -18 -18 -31 -40 -31
-55 0 -33 66 -95 165 -154 66 -39 85 -46 112 -41 32 6 33 5 33 -25 0 -33 29
-71 54 -71 23 0 16 -119 -8 -132 -46 -26 -86 15 -86 88 0 19 -4 34 -10 34 -5
0 -10 6 -10 14 0 16 -27 29 -35 16 -3 -4 2 -15 10 -24 8 -8 14 -19 13 -23 -1
-4 1 -26 6 -48 9 -48 51 -95 84 -95 15 0 39 -16 66 -43 51 -53 141 -82 230
-75 l56 5 0 -33 c0 -24 5 -33 21 -37 17 -5 20 -11 17 -31 -7 -33 10 -38 87
-27 65 9 75 7 75 -14 0 -14 29 -10 40 6 3 4 37 -1 75 -12 39 -10 99 -20 135
-20 49 0 86 -9 151 -34 78 -31 90 -33 125 -23 22 6 48 20 60 30 31 27 51 22
80 -22 26 -40 27 -40 88 -39 33 0 70 4 81 8 16 7 14 9 -14 14 -19 4 -44 7 -56
7 -26 0 -75 58 -75 88 0 13 13 22 48 33 l47 15 3 62 3 63 37 -7 c99 -17 120 5
193 204 23 64 43 118 44 119 1 1 77 -13 171 -32 93 -19 177 -35 187 -35 26 0
21 15 -10 29 -53 23 -143 86 -143 99 0 7 15 43 34 80 65 130 108 292 87 330
-6 12 -26 22 -52 26 -54 9 -79 23 -79 44 0 9 -16 55 -35 102 -19 47 -35 90
-35 95 0 12 188 165 268 219 30 20 58 33 63 30 5 -3 9 2 9 10 0 24 -30 20
-174 -19 l-130 -36 -48 48 c-48 47 -49 49 -43 95 6 42 4 50 -19 73 -30 29 -36
30 -105 9 -29 -8 -54 -14 -55 -12 -1 2 -10 35 -19 75 -16 70 -16 74 4 120 15
35 22 79 26 161 3 61 4 112 2 112 -2 0 -16 -56 -31 -124z m-525 -895 c291
-168 335 -196 320 -206 -10 -7 -169 -99 -353 -205 -184 -106 -338 -194 -342
-197 -5 -2 -8 183 -8 412 l0 416 23 -13 c13 -7 175 -100 360 -207z"/>
</g>
</svg>
